<svg width="540" height="374" viewBox="0 0 540 374" fill="none" xmlns="http://www.w3.org/2000/svg">
<g filter="url(#filter0_f_5_37)">
<circle cx="269.5" cy="41.5" r="178.5" fill="#E73232" fill-opacity="0.1"/>
</g>
<path opacity="0.3" fill-rule="evenodd" clip-rule="evenodd" d="M131.376 -95.856V-50.544H78V-49.776H131.376V-4.46401H78V-3.69601H131.376V41.616H78V42.384H131.376V87.696H78V88.464H131.376V133.776H78V134.544H131.376V179.856H78V180.624H131.376V234H132.144V180.624H177.456V234H178.224V180.624H223.536V234H224.304V180.624H269.616V234H270.384V180.624H315.696V234H316.464V180.624H361.776V234H362.544V180.624H407.856V234H408.624V180.624H462V179.856H408.624V134.544H462V133.776H408.624V88.464H462V87.696H408.624V42.384H462V41.616H408.624V-3.696H462V-4.464H408.624V-49.776H462V-50.544H408.624V-95.856H462V-96.624H408.624V-150H407.856V-96.624L362.544 -96.624V-150H361.776V-96.624H316.464V-150H315.696V-96.624H270.384V-150H269.616V-96.624H224.304V-150H223.536V-96.624H178.224V-150H177.456V-96.624L132.144 -96.624V-150H131.376V-96.624H78V-95.856H131.376ZM407.856 179.856V134.544H362.544V179.856H407.856ZM361.776 179.856V134.544H316.464V179.856H361.776ZM315.696 179.856V134.544H270.384V179.856H315.696ZM269.616 179.856V134.544H224.304V179.856H269.616ZM223.536 179.856V134.544H178.224V179.856H223.536ZM177.456 179.856V134.544H132.144V179.856H177.456ZM177.456 133.776H132.144V88.464H177.456V133.776ZM223.536 133.776H178.224V88.464H223.536V133.776ZM269.616 133.776H224.304V88.464H269.616V133.776ZM315.696 133.776H270.384V88.464H315.696V133.776ZM361.776 133.776H316.464V88.464H361.776V133.776ZM407.856 133.776H362.544V88.464H407.856V133.776ZM407.856 87.696V42.384H362.544V87.696H407.856ZM361.776 87.696V42.384H316.464V87.696H361.776ZM315.696 87.696V42.384H270.384V87.696H315.696ZM269.616 87.696V42.384H224.304V87.696H269.616ZM223.536 87.696V42.384H178.224V87.696H223.536ZM177.456 87.696V42.384H132.144V87.696H177.456ZM177.456 41.616H132.144V-3.69601H177.456V41.616ZM223.536 41.616H178.224V-3.69601H223.536V41.616ZM269.616 41.616H224.304V-3.69601H269.616V41.616ZM315.696 41.616H270.384V-3.696H315.696V41.616ZM361.776 41.616H316.464V-3.696H361.776V41.616ZM407.856 41.616H362.544V-3.696H407.856V41.616ZM407.856 -4.464V-49.776H362.544V-4.464H407.856ZM361.776 -4.464V-49.776H316.464V-4.464H361.776ZM315.696 -4.464V-49.776H270.384V-4.464H315.696ZM269.616 -4.46401V-49.776H224.304V-4.46401H269.616ZM223.536 -4.46401V-49.776H178.224V-4.46401H223.536ZM177.456 -4.46401V-49.776H132.144V-4.46401H177.456ZM177.456 -50.544H132.144V-95.856L177.456 -95.856V-50.544ZM223.536 -50.544H178.224V-95.856H223.536V-50.544ZM269.616 -50.544H224.304V-95.856H269.616V-50.544ZM315.696 -50.544H270.384V-95.856H315.696V-50.544ZM361.776 -50.544H316.464V-95.856H361.776V-50.544ZM407.856 -50.544H362.544V-95.856L407.856 -95.856V-50.544Z" fill="url(#paint0_radial_5_37)"/>
<defs>
<filter id="filter0_f_5_37" x="-63" y="-291" width="665" height="665" filterUnits="userSpaceOnUse" color-interpolation-filters="sRGB">
<feFlood flood-opacity="0" result="BackgroundImageFix"/>
<feBlend mode="normal" in="SourceGraphic" in2="BackgroundImageFix" result="shape"/>
<feGaussianBlur stdDeviation="77" result="effect1_foregroundBlur_5_37"/>
</filter>
<radialGradient id="paint0_radial_5_37" cx="0" cy="0" r="1" gradientUnits="userSpaceOnUse" gradientTransform="translate(270 42) rotate(90) scale(192)">
<stop stop-color="#E73232"/>
<stop offset="1" stop-color="white" stop-opacity="0"/>
</radialGradient>
</defs>
</svg>
