<svg width="25" height="24" viewBox="0 0 25 24" fill="none" xmlns="http://www.w3.org/2000/svg">
<g clip-path="url(#clip0_891_15135)">
<path d="M0.5 22.0001H14.5V24.0001H0.5V22.0001ZM12.5 19.9839C12.5 19.7187 12.3946 19.4643 12.2071 19.2768C12.0196 19.0893 11.7652 18.9839 11.5 18.9839H3.5C3.23478 18.9839 2.98043 19.0893 2.79289 19.2768C2.60536 19.4643 2.5 19.7187 2.5 19.9839V21.0001H12.5V19.9839ZM14.1065 11.8079C13.6406 12.3045 13.2498 12.8666 12.9467 13.4764L21.1777 21.7074C21.3653 21.8949 21.6196 22.0002 21.8848 22.0002C22.1499 22.0002 22.4042 21.8949 22.5917 21.7074L24.006 20.2931C24.0989 20.2003 24.1725 20.09 24.2228 19.9687C24.273 19.8474 24.2989 19.7173 24.2989 19.586C24.2989 19.4547 24.273 19.3247 24.2228 19.2033C24.1725 19.082 24.0989 18.9718 24.006 18.8789L15.775 10.6501C15.1641 10.9506 14.6017 11.3408 14.1065 11.8079ZM9.15675 6.85815C8.40053 7.55994 7.52514 8.12115 6.57175 8.5154L11.7402 13.6839C12.138 12.7322 12.6998 11.8576 13.4 11.1001C14.1563 10.3984 15.0317 9.8371 15.985 9.44265L10.8162 4.27515C10.4183 5.22654 9.85666 6.10078 9.15675 6.85815Z" fill="#E73232"/>
<path d="M12.6903 0.494891L11.2761 1.9091C10.8856 2.29963 10.8856 2.93279 11.2761 3.32332L16.9329 8.98017C17.3235 9.3707 17.9566 9.3707 18.3471 8.98017L19.7614 7.56596C20.1519 7.17543 20.1519 6.54227 19.7614 6.15174L14.1045 0.494891C13.714 0.104366 13.0808 0.104366 12.6903 0.494891Z" fill="#E73232"/>
<path d="M4.20494 8.97853L2.79073 10.3927C2.4002 10.7833 2.4002 11.4164 2.79072 11.807L8.44758 17.4638C8.8381 17.8543 9.47127 17.8543 9.86179 17.4638L11.276 16.0496C11.6665 15.6591 11.6665 15.0259 11.276 14.6354L5.61915 8.97853C5.22863 8.58801 4.59546 8.58801 4.20494 8.97853Z" fill="#E73232"/>
</g>
<defs>
<clipPath id="clip0_891_15135">
<rect width="24" height="24" fill="white" transform="translate(0.5)"/>
</clipPath>
</defs>
</svg>
