<svg width="25" height="24" viewBox="0 0 25 24" fill="none" xmlns="http://www.w3.org/2000/svg">
<path d="M7.80233 0H16.7326C17.5032 0 18.1279 0.624719 18.1279 1.39535V2.51163C18.1279 3.28226 17.5032 3.90698 16.7326 3.90698H7.80233C7.0317 3.90698 6.40698 3.28226 6.40698 2.51163V1.39535C6.40698 0.624719 7.0317 0 7.80233 0Z" fill="#E73232"/>
<path fill-rule="evenodd" clip-rule="evenodd" d="M19.2442 1.11628H20.0814C20.5986 1.11921 21.0938 1.32596 21.4595 1.69168C21.8252 2.0574 22.032 2.55257 22.0349 3.06977V22.0465C22.032 22.5637 21.8252 23.0589 21.4595 23.4246C21.0938 23.7903 20.5986 23.9971 20.0814 24H4.45349C3.93629 23.9971 3.44112 23.7903 3.0754 23.4246C2.70968 23.0589 2.50293 22.5637 2.5 22.0465V3.06977C2.50293 2.55257 2.70968 2.0574 3.0754 1.69168C3.44112 1.32596 3.93629 1.11921 4.45349 1.11628H5.2907V2.7907C5.2907 3.38281 5.52591 3.95067 5.9446 4.36935C6.36328 4.78804 6.93114 5.02326 7.52326 5.02326H17.0116C17.6037 5.02326 18.1716 4.78804 18.5903 4.36935C19.009 3.95067 19.2442 3.38281 19.2442 2.7907V1.11628Z" fill="#E73232"/>
<path d="M16 11L12.5 14.5M9 18L12.5 14.5M12.5 14.5L16 18M12.5 14.5L9 11" stroke="white" stroke-width="1.5" stroke-linecap="round" stroke-linejoin="round"/>
</svg>
