<svg width="24" height="24" viewBox="0 0 24 24" fill="none" xmlns="http://www.w3.org/2000/svg">
<g clip-path="url(#clip0_891_15141)">
<path fill-rule="evenodd" clip-rule="evenodd" d="M20.4451 8.21592C21.402 8.21592 22.3197 7.83579 22.9963 7.15917C23.6729 6.48255 24.0531 5.56485 24.0531 4.60796C24.0531 3.65107 23.6729 2.73337 22.9963 2.05675C22.3197 1.38012 21.402 1 20.4451 1C19.4882 1 18.5705 1.38012 17.8939 2.05675C17.2173 2.73337 16.8371 3.65107 16.8371 4.60796C16.8371 5.56485 17.2173 6.48255 17.8939 7.15917C18.5705 7.83579 19.4882 8.21592 20.4451 8.21592ZM2.40531 2.20265H14.9321C14.4004 3.41979 14.2867 4.77871 14.6086 6.06731C14.9305 7.35591 15.67 8.50167 16.7116 9.32576C17.7533 10.1498 19.0384 10.6059 20.3665 10.6227C21.6946 10.6394 22.9909 10.2161 24.0531 9.41857V16.6345C24.0531 17.2724 23.7996 17.8842 23.3486 18.3353C22.8975 18.7864 22.2857 19.0398 21.6477 19.0398H19.2424V22.3988C19.2424 22.5178 19.2071 22.6341 19.1409 22.733C19.0748 22.8319 18.9808 22.9089 18.8708 22.9544C18.7609 22.9998 18.6399 23.0117 18.5232 22.9883C18.4065 22.965 18.2994 22.9076 18.2154 22.8233L14.4318 19.0398H2.40531C1.76738 19.0398 1.15558 18.7864 0.704498 18.3353C0.253415 17.8842 0 17.2724 0 16.6345V4.60796C0 3.97003 0.253415 3.35823 0.704498 2.90715C1.15558 2.45607 1.76738 2.20265 2.40531 2.20265Z" fill="#E73232"/>
</g>
<defs>
<clipPath id="clip0_891_15141">
<rect width="24" height="24" fill="white"/>
</clipPath>
</defs>
</svg>
