<svg width="24" height="24" viewBox="0 0 24 24" fill="none" xmlns="http://www.w3.org/2000/svg">
<path d="M7.30233 0H16.2326C17.0032 0 17.6279 0.624719 17.6279 1.39535V2.51163C17.6279 3.28226 17.0032 3.90698 16.2326 3.90698H7.30233C6.5317 3.90698 5.90698 3.28226 5.90698 2.51163V1.39535C5.90698 0.624719 6.5317 0 7.30233 0Z" fill="#E73232"/>
<path fill-rule="evenodd" clip-rule="evenodd" d="M18.7442 1.11628H19.5814C20.0986 1.11921 20.5938 1.32596 20.9595 1.69168C21.3252 2.0574 21.532 2.55257 21.5349 3.06977V22.0465C21.532 22.5637 21.3252 23.0589 20.9595 23.4246C20.5938 23.7903 20.0986 23.9971 19.5814 24H3.95349C3.43629 23.9971 2.94112 23.7903 2.5754 23.4246C2.20968 23.0589 2.00293 22.5637 2 22.0465V3.06977C2.00293 2.55257 2.20968 2.0574 2.5754 1.69168C2.94112 1.32596 3.43629 1.11921 3.95349 1.11628H4.7907V2.7907C4.7907 3.38281 5.02591 3.95067 5.4446 4.36936C5.86328 4.78804 6.43114 5.02326 7.02326 5.02326H16.5116C17.1037 5.02326 17.6716 4.78804 18.0903 4.36936C18.509 3.95067 18.7442 3.38281 18.7442 2.7907V1.11628ZM11.5442 16.7442L15.7302 12.2791V12.2233C15.8711 12.0622 15.945 11.8533 15.9367 11.6395C15.9284 11.4257 15.8386 11.2231 15.6856 11.0735C15.5286 10.9167 15.3158 10.8286 15.094 10.8286C14.8721 10.8286 14.6593 10.9167 14.5023 11.0735L10.8744 14.9247L8.97674 13.2279C8.79869 13.0929 8.57454 13.0335 8.35299 13.0628C8.13143 13.092 7.93038 13.2075 7.79349 13.3842C7.719 13.4646 7.6615 13.5592 7.62442 13.6623C7.58734 13.7655 7.57146 13.875 7.57771 13.9845C7.58396 14.0939 7.61223 14.2009 7.66081 14.2992C7.7094 14.3974 7.7773 14.4849 7.86046 14.5563L10.3721 16.7888C10.5246 16.9276 10.7241 17.0034 10.9302 17.0009C11.1608 17 11.3816 16.9077 11.5442 16.7442Z" fill="#E73232"/>
</svg>
