<svg width="24" height="24" viewBox="0 0 24 24" fill="none" xmlns="http://www.w3.org/2000/svg">
<path d="M15.375 16.1248C15.375 15.4756 15.375 13.4998 17.25 13.4998H21V11.2498C21 10.2159 20.1589 9.37476 19.125 9.37476H3C1.96613 9.37476 1.125 10.2159 1.125 11.2498V20.9998C1.125 22.0336 1.96613 22.8748 3 22.8748H19.125C20.1589 22.8748 21 22.0336 21 20.9998V18.7498H17.25C15.375 18.7498 15.375 16.7739 15.375 16.1248ZM16.125 8.62476V6.35151C16.125 5.96414 15.9229 5.61276 15.5842 5.41176C15.4137 5.30946 15.2193 5.25374 15.0205 5.25018C14.8217 5.24663 14.6254 5.29536 14.4514 5.39151L7.96725 8.62476H16.125Z" fill="#E73232"/>
<path d="M18.375 16.875C18.7892 16.875 19.125 16.5392 19.125 16.125C19.125 15.7108 18.7892 15.375 18.375 15.375C17.9608 15.375 17.625 15.7108 17.625 16.125C17.625 16.5392 17.9608 16.875 18.375 16.875Z" fill="#E73232"/>
<path d="M12.7509 5.40298V3.8066C12.7552 3.57982 12.6932 3.35673 12.5725 3.16464C12.4519 2.97255 12.2779 2.8198 12.0718 2.7251C11.6735 2.54435 11.237 2.6111 10.904 2.90323L4.37305 8.62573H6.2878L12.7509 5.40298ZM21.7509 14.2507H17.2509C16.5755 14.2507 16.1259 14.5699 16.1259 16.1257C16.1259 17.6816 16.5755 18.0007 17.2509 18.0007H21.7509C22.3712 18.0007 22.8759 17.496 22.8759 16.8757V15.3757C22.8759 14.7555 22.3712 14.2507 21.7509 14.2507ZM18.3759 17.6257C17.5487 17.6257 16.8759 16.953 16.8759 16.1257C16.8759 15.2985 17.5487 14.6257 18.3759 14.6257C19.2032 14.6257 19.8759 15.2985 19.8759 16.1257C19.8759 16.953 19.2032 17.6257 18.3759 17.6257ZM23.168 3.29998L21.443 0.979479C21.391 0.909458 21.3233 0.852589 21.2453 0.81342C21.1674 0.774251 21.0813 0.75387 20.9941 0.753906C20.9068 0.753943 20.8208 0.774396 20.7429 0.81363C20.665 0.852864 20.5973 0.90979 20.5453 0.979854L18.8308 3.28873C18.7928 3.32652 18.7669 3.37474 18.7564 3.42727C18.7459 3.4798 18.7512 3.53427 18.7717 3.58377C18.7922 3.63327 18.8269 3.67556 18.8715 3.70529C18.9161 3.73501 18.9685 3.75083 19.022 3.75073H19.8688C19.9805 4.29901 19.9195 4.86846 19.694 5.38058C19.4685 5.8927 19.0898 6.32228 18.6099 6.6101L18.3759 6.75073L19.8759 7.87573L19.9419 7.83185C20.6137 7.38387 21.1645 6.77699 21.5455 6.06507C21.9265 5.35314 22.1259 4.55819 22.1259 3.75073H22.9813C23.0335 3.75076 23.0846 3.73529 23.128 3.70628C23.1715 3.67728 23.2053 3.63604 23.2253 3.58778C23.2453 3.53952 23.2506 3.48642 23.2404 3.43518C23.2302 3.38395 23.205 3.3369 23.168 3.29998Z" fill="#E73232"/>
</svg>
