<svg width="24" height="24" viewBox="0 0 24 24" fill="none" xmlns="http://www.w3.org/2000/svg">
<path d="M5.37567 14.2948L4.60988 17.1536L1.81093 17.2128C0.974461 15.6614 0.5 13.8863 0.5 12C0.5 10.1759 0.94361 8.45577 1.72994 6.94116H1.73054L4.22238 7.39801L5.31396 9.8749C5.0855 10.541 4.96097 11.256 4.96097 12C4.96106 12.8074 5.10733 13.5811 5.37567 14.2948Z" fill="#FBBB00"/>
<path d="M22.3082 9.94507C22.4345 10.6105 22.5004 11.2977 22.5004 12C22.5004 12.7875 22.4176 13.5557 22.2598 14.2967C21.7243 16.8183 20.3252 19.0201 18.3869 20.5782L18.3863 20.5776L15.2477 20.4175L14.8035 17.6445C16.0896 16.8902 17.0947 15.7098 17.6242 14.2967H11.7422V9.94507H17.71H22.3082Z" fill="#518EF8"/>
<path d="M18.3855 20.5776L18.3861 20.5782C16.501 22.0934 14.1064 23 11.4996 23C7.31055 23 3.66847 20.6586 1.81055 17.2129L5.37528 14.2949C6.30422 16.7741 8.69582 18.539 11.4996 18.539C12.7048 18.539 13.8338 18.2132 14.8026 17.6445L18.3855 20.5776Z" fill="#28B446"/>
<path d="M18.5218 3.53241L14.9583 6.44981C13.9556 5.82307 12.7703 5.46102 11.5005 5.46102C8.63327 5.46102 6.19694 7.30683 5.31454 9.87494L1.73107 6.94121H1.73047C3.5612 3.41154 7.2492 1 11.5005 1C14.1695 1 16.6167 1.95073 18.5218 3.53241Z" fill="#E02025"/>
</svg>
