<svg width="203" height="48" viewBox="0 0 203 48" fill="none" xmlns="http://www.w3.org/2000/svg">
<path fill-rule="evenodd" clip-rule="evenodd" d="M6.93615 12.9988C6.6332 12.843 6.26657 13.0292 6.21358 13.3657L3.00785 33.7221C2.96006 34.0255 3.1946 34.2999 3.50176 34.2999H8.21432V37.2999H3.50176C1.35164 37.2999 -0.29011 35.3793 0.044369 33.2554L3.2501 12.899C3.62105 10.5435 6.18744 9.24041 8.30805 10.3309L21.3335 17.0288C21.477 17.1026 21.6473 17.1026 21.7908 17.0288L34.8162 10.3309C36.9369 9.24041 39.5032 10.5435 39.8742 12.899L43.0799 33.2554C43.4144 35.3793 41.7727 37.2999 39.6225 37.2999H34.7339V34.2999H39.6225C39.9297 34.2999 40.1642 34.0255 40.1165 33.7221L36.9107 13.3657C36.8577 13.0292 36.4911 12.843 36.1882 12.9988L23.1627 19.6967C22.1582 20.2133 20.9661 20.2133 19.9616 19.6967L6.93615 12.9988Z" fill="#E73232"/>
<path fill-rule="evenodd" clip-rule="evenodd" d="M21.5635 11C23.7726 11 25.5635 9.20914 25.5635 7C25.5635 4.79086 23.7726 3 21.5635 3C19.3543 3 17.5635 4.79086 17.5635 7C17.5635 9.20914 19.3543 11 21.5635 11ZM21.5635 14C25.4295 14 28.5635 10.866 28.5635 7C28.5635 3.13401 25.4295 0 21.5635 0C17.6975 0 14.5635 3.13401 14.5635 7C14.5635 10.866 17.6975 14 21.5635 14Z" fill="#E73232"/>
<path fill-rule="evenodd" clip-rule="evenodd" d="M30.9479 41.2017H12.1846C11.6305 41.2017 11.182 40.7511 11.1846 40.1971L11.2377 28.5971C11.2402 28.0466 11.6872 27.6017 12.2377 27.6017H30.8947C31.4452 27.6017 31.8922 28.0466 31.8947 28.5971L31.9478 40.1971C31.9504 40.7512 31.5019 41.2017 30.9479 41.2017ZM12.1846 44.2017C9.96828 44.2017 8.17447 42.3996 8.18461 40.1833L8.23773 28.5833C8.24781 26.3814 10.0357 24.6017 12.2377 24.6017H30.8947C33.0967 24.6017 34.8846 26.3814 34.8947 28.5833L34.9478 40.1833C34.958 42.3996 33.1642 44.2017 30.9479 44.2017H12.1846Z" fill="black"/>
<path fill-rule="evenodd" clip-rule="evenodd" d="M10.593 48.0005C10.0312 48.0005 9.58244 47.4802 9.60533 46.8557C9.62694 46.2661 10.0627 45.8005 10.593 45.8005H32.616C33.1463 45.8005 33.582 46.2661 33.6037 46.8557C33.6265 47.4802 33.1777 48.0005 32.616 48.0005H10.593Z" fill="black"/>
<path d="M55.8051 20V9.99997C55.8051 9.44577 55.9029 9.10347 56.0985 8.97307C56.2941 8.82637 56.7016 8.75302 57.321 8.75302H60.3773L63.2379 15.1345L63.2868 15.379L63.3357 15.3545L63.3846 15.11L66.1474 8.75302H69.3993C69.9861 8.75302 70.361 8.83452 70.524 8.99752C70.7033 9.16052 70.7929 9.49467 70.7929 9.99997V18.7531C70.7929 19.1606 70.7522 19.454 70.6707 19.6333C70.5892 19.7963 70.4425 19.9022 70.2306 19.9511C70.0187 19.9837 69.709 20 69.3015 20H66.7831V13.0562L66.612 13.7408L63.8981 20H61.4775L58.788 13.8142L58.6413 13.1296V20H55.8051ZM78.385 20.1222C77.244 20.1222 76.3231 20.0815 75.6222 20C74.9213 19.9348 74.3752 19.7963 73.984 19.5844C73.6091 19.3725 73.3565 19.0709 73.2261 18.6797C73.0957 18.2885 73.0305 17.7832 73.0305 17.1638C73.0305 16.3325 73.112 15.705 73.275 15.2812C73.438 14.8411 73.7232 14.5395 74.1307 14.3765C74.5382 14.2135 75.0843 14.132 75.7689 14.132C76.1764 14.132 76.6409 14.1402 77.1625 14.1565C77.7004 14.1565 78.222 14.1646 78.7273 14.1809C79.2489 14.1972 79.6972 14.2298 80.0721 14.2787C80.4633 14.3113 80.7322 14.3439 80.8789 14.3765C80.8789 13.8712 80.83 13.4719 80.7322 13.1785C80.6507 12.8851 80.5122 12.665 80.3166 12.5183C80.121 12.3553 79.8602 12.2494 79.5342 12.2005C79.2082 12.1516 78.8088 12.1271 78.3361 12.1271C77.7656 12.1271 77.1951 12.1353 76.6246 12.1516C76.0704 12.1679 75.5244 12.2005 74.9865 12.2494C74.4649 12.2983 73.984 12.3553 73.5439 12.4205V11.7359C73.5439 11.2958 73.6417 10.9698 73.8373 10.7579C74.0329 10.546 74.3019 10.4075 74.6442 10.3423C75.0191 10.2608 75.5733 10.2037 76.3068 10.1711C77.0566 10.1385 77.8634 10.1222 78.7273 10.1222C79.8194 10.1222 80.7322 10.1793 81.4657 10.2934C82.2155 10.4075 82.8023 10.6112 83.2261 10.9046C83.6499 11.198 83.9515 11.6381 84.1308 12.2249C84.3101 12.7954 84.3997 13.5615 84.3997 14.5232V19.3888C84.1389 19.6333 83.4869 19.8207 82.4437 19.9511C81.4168 20.0652 80.0639 20.1222 78.385 20.1222ZM78.3606 18.6064C78.817 18.6064 79.2 18.5982 79.5097 18.5819C79.8357 18.5493 80.1128 18.5086 80.341 18.4597C80.5692 18.4108 80.7485 18.3537 80.8789 18.2885V15.5501C80.6996 15.5012 80.447 15.4605 80.121 15.4279C79.8113 15.3953 79.4934 15.3708 79.1674 15.3545C78.8414 15.3382 78.5888 15.3301 78.4095 15.3301C78.0183 15.3301 77.7004 15.3627 77.4559 15.4279C77.2114 15.4931 77.0321 15.6398 76.918 15.868C76.8202 16.0962 76.7713 16.4466 76.7713 16.9193C76.7713 17.3268 76.8121 17.661 76.8936 17.9218C76.9751 18.1663 77.1299 18.3456 77.3581 18.4597C77.5863 18.5575 77.9205 18.6064 78.3606 18.6064ZM90.2232 20.0978C89.343 20.0978 88.6503 20.0081 88.145 19.8289C87.656 19.6333 87.3137 19.3236 87.1181 18.8998C86.9225 18.4597 86.8247 17.8566 86.8247 17.0905V12.1516H85.7733V10.2445H86.8247V8.99752C86.8247 8.59002 86.8491 8.28847 86.898 8.09288C86.9632 7.89728 87.0855 7.77503 87.2648 7.72613C87.4441 7.67723 87.7293 7.65278 88.1205 7.65278H90.4677C90.4677 7.71798 90.4677 7.79948 90.4677 7.89728C90.4677 7.99508 90.4677 8.11733 90.4677 8.26402V10.2445H92.8393V12.1516H90.4921V16.7971C90.4921 17.4491 90.5492 17.9218 90.6633 18.2152C90.7937 18.5086 91.1278 18.6553 91.6657 18.6553C91.8124 18.6553 91.9999 18.639 92.2281 18.6064C92.4726 18.5738 92.6437 18.5412 92.7415 18.5086V19.8533C92.6274 19.8696 92.3422 19.9185 91.8858 20C91.4457 20.0652 90.8915 20.0978 90.2232 20.0978ZM100.081 20.1467C98.6137 20.1467 97.432 20.0244 96.5355 19.78C95.6553 19.5192 95.0114 19.0465 94.6039 18.3619C94.2127 17.661 94.0171 16.6504 94.0171 15.3301C94.0171 13.8957 94.2127 12.8036 94.6039 12.0538C95.0114 11.304 95.6553 10.7905 96.5355 10.5134C97.432 10.2363 98.6137 10.0978 100.081 10.0978C100.505 10.0978 100.912 10.1222 101.303 10.1711C101.711 10.2037 102.2 10.2608 102.77 10.3423C103.096 10.3749 103.357 10.4482 103.553 10.5623C103.765 10.6764 103.919 10.8639 104.017 11.1247C104.115 11.3855 104.164 11.7767 104.164 12.2983C103.985 12.2331 103.707 12.176 103.333 12.1271C102.974 12.0619 102.583 12.013 102.159 11.9804C101.735 11.9478 101.36 11.9315 101.034 11.9315C100.203 11.9315 99.5428 12.0293 99.0538 12.2249C98.5811 12.4205 98.2388 12.7465 98.0269 13.2029C97.8313 13.6593 97.7335 14.2869 97.7335 15.0856C97.7335 15.868 97.8313 16.4874 98.0269 16.9438C98.2388 17.4002 98.5811 17.7262 99.0538 17.9218C99.5428 18.1174 100.203 18.2152 101.034 18.2152C101.409 18.2152 101.8 18.1989 102.208 18.1663C102.632 18.1337 103.015 18.0929 103.357 18.044C103.716 17.9788 103.985 17.9136 104.164 17.8484V18.8264C104.164 19.2339 103.976 19.5355 103.602 19.7311C103.243 19.9104 102.754 20.0244 102.135 20.0733C101.515 20.1222 100.831 20.1467 100.081 20.1467ZM107.187 20C106.617 20 106.258 19.9267 106.111 19.78C105.965 19.617 105.891 19.3154 105.891 18.8753V7.65278H109.534V10.489C109.73 10.4401 109.958 10.3993 110.219 10.3667C110.496 10.3341 110.79 10.3097 111.099 10.2934C111.409 10.2771 111.702 10.2689 111.979 10.2689C113.088 10.2689 113.976 10.3504 114.644 10.5134C115.313 10.6764 115.818 10.9291 116.16 11.2714C116.503 11.6137 116.731 12.0619 116.845 12.6161C116.975 13.1703 117.041 13.8468 117.041 14.6455V18.4597C117.041 18.8998 116.992 19.2339 116.894 19.4621C116.812 19.674 116.658 19.8207 116.429 19.9022C116.201 19.9674 115.867 20 115.427 20H113.471V14.1565C113.471 13.5371 113.398 13.0725 113.251 12.7628C113.104 12.4368 112.868 12.2249 112.542 12.1271C112.232 12.013 111.816 11.956 111.295 11.956C111.116 11.956 110.912 11.9641 110.684 11.9804C110.472 11.9967 110.26 12.0293 110.048 12.0782C109.836 12.1108 109.665 12.1516 109.534 12.2005V20H107.187ZM119.048 14.3765C119.048 13.2192 119.162 12.2657 119.39 11.5159C119.634 10.7661 120.017 10.1793 120.539 9.75547C121.061 9.33167 121.729 9.03827 122.544 8.87527C123.375 8.71227 124.378 8.63077 125.551 8.63077C126.154 8.63077 126.733 8.65522 127.287 8.70412C127.858 8.73672 128.436 8.80192 129.023 8.89972C129.512 8.98122 129.822 9.09532 129.952 9.24202C130.099 9.37242 130.172 9.55987 130.172 9.80437V10.4156C129.863 10.2689 129.431 10.1467 128.876 10.0489C128.322 9.93477 127.752 9.85327 127.165 9.80437C126.578 9.75547 126.057 9.73102 125.6 9.73102C124.459 9.73102 123.546 9.86957 122.862 10.1467C122.193 10.4075 121.713 10.872 121.419 11.5403C121.126 12.2086 120.979 13.154 120.979 14.3765C120.979 15.599 121.118 16.5526 121.395 17.2372C121.672 17.9055 122.153 18.3782 122.837 18.6553C123.538 18.9324 124.5 19.0709 125.722 19.0709C126.163 19.0709 126.66 19.0465 127.214 18.9976C127.768 18.9487 128.306 18.8753 128.828 18.7775C129.349 18.6634 129.797 18.5493 130.172 18.4352V18.9976C130.172 19.2095 130.099 19.3969 129.952 19.5599C129.806 19.7066 129.48 19.8126 128.974 19.8778C128.404 19.9919 127.833 20.0652 127.263 20.0978C126.692 20.1467 126.105 20.1711 125.502 20.1711C124.296 20.1711 123.277 20.0896 122.446 19.9267C121.615 19.7474 120.947 19.454 120.441 19.0465C119.952 18.6227 119.594 18.0359 119.365 17.2861C119.154 16.5363 119.048 15.5664 119.048 14.3765ZM134.115 20H133.039C132.827 20 132.664 19.9511 132.55 19.8533C132.452 19.7392 132.403 19.5355 132.403 19.2421V10.7335C132.762 10.6194 133.251 10.4971 133.87 10.3667C134.506 10.2363 135.288 10.1711 136.218 10.1711C137.098 10.1711 137.791 10.2363 138.296 10.3667C138.817 10.4808 139.192 10.6438 139.421 10.8557C139.665 11.0676 139.82 11.3284 139.885 11.6381C139.967 11.9315 140.007 12.2657 140.007 12.6406H138.369L138.345 12.2983C138.328 11.9234 138.206 11.6544 137.978 11.4914C137.75 11.3121 137.481 11.2062 137.171 11.1736C136.861 11.1247 136.552 11.1002 136.242 11.1002C135.769 11.1002 135.346 11.141 134.971 11.2225C134.612 11.304 134.327 11.4099 134.115 11.5403V20ZM146.575 20.1467C145.63 20.1467 144.831 20.0815 144.179 19.9511C143.543 19.8207 143.03 19.5762 142.639 19.2176C142.264 18.859 141.987 18.3619 141.807 17.7262C141.644 17.0742 141.563 16.2347 141.563 15.2078C141.563 14.0342 141.71 13.0725 142.003 12.3227C142.296 11.5729 142.818 11.0187 143.568 10.6601C144.318 10.3015 145.369 10.1222 146.722 10.1222C147.765 10.1222 148.596 10.2608 149.216 10.5379C149.851 10.815 150.308 11.2388 150.585 11.8093C150.878 12.3798 151.025 13.1214 151.025 14.0342V15.4279H144.13C144.13 15.2323 144.179 15.0693 144.277 14.9389C144.375 14.7922 144.554 14.7188 144.815 14.7188H149.485L149.46 14.0098C149.444 12.9992 149.224 12.2657 148.8 11.8093C148.393 11.3529 147.675 11.1247 146.649 11.1247C145.785 11.1247 145.108 11.2551 144.619 11.5159C144.13 11.7767 143.788 12.2005 143.592 12.7873C143.397 13.3741 143.299 14.1728 143.299 15.1834C143.299 16.2592 143.405 17.0823 143.617 17.6528C143.845 18.207 144.22 18.5901 144.741 18.802C145.263 18.9976 145.972 19.0954 146.869 19.0954C147.178 19.0954 147.529 19.0872 147.92 19.0709C148.327 19.0383 148.735 19.0057 149.142 18.9731C149.55 18.9405 149.909 18.8998 150.218 18.8509C150.544 18.7857 150.772 18.7205 150.903 18.6553V18.9487C150.903 19.1117 150.854 19.2665 150.756 19.4132C150.675 19.5599 150.495 19.6822 150.218 19.78C149.86 19.9267 149.371 20.0244 148.751 20.0733C148.148 20.1222 147.423 20.1467 146.575 20.1467ZM157.476 20.1711C156.514 20.1711 155.732 20.1222 155.129 20.0244C154.526 19.9267 154.061 19.7637 153.735 19.5355C153.425 19.291 153.205 18.9731 153.075 18.5819C152.961 18.1907 152.904 17.7099 152.904 17.1394C152.904 16.3081 153.002 15.6724 153.197 15.2323C153.393 14.7922 153.735 14.4906 154.224 14.3276C154.713 14.1646 155.365 14.0831 156.18 14.0831C156.588 14.0831 157.028 14.0994 157.5 14.132C157.989 14.1483 158.454 14.1728 158.894 14.2054C159.351 14.2217 159.742 14.2461 160.068 14.2787C160.41 14.3113 160.638 14.3521 160.752 14.401C160.752 13.6512 160.687 13.0562 160.557 12.6161C160.426 12.176 160.223 11.85 159.945 11.6381C159.685 11.4262 159.351 11.2877 158.943 11.2225C158.552 11.1573 158.095 11.1247 157.574 11.1247C157.036 11.1247 156.49 11.1491 155.936 11.198C155.398 11.2306 154.901 11.2958 154.444 11.3936C153.988 11.4751 153.637 11.5892 153.393 11.7359V11.3692C153.393 11.0269 153.491 10.7905 153.686 10.6601C153.898 10.5134 154.135 10.4156 154.395 10.3667C154.705 10.2852 155.153 10.22 155.74 10.1711C156.343 10.1222 156.971 10.1059 157.623 10.1222C158.454 10.1222 159.163 10.163 159.75 10.2445C160.353 10.326 160.85 10.5053 161.241 10.7824C161.633 11.0432 161.926 11.4425 162.122 11.9804C162.317 12.5183 162.415 13.2518 162.415 14.1809V19.2176C162.317 19.5436 161.885 19.7881 161.119 19.9511C160.353 20.0978 159.139 20.1711 157.476 20.1711ZM157.476 19.3399C158.226 19.3399 158.821 19.3154 159.261 19.2665C159.717 19.2176 160.06 19.1524 160.288 19.0709C160.532 18.9894 160.687 18.8835 160.752 18.7531V15.11C160.606 15.0611 160.329 15.0122 159.921 14.9633C159.53 14.9144 159.114 14.8737 158.674 14.8411C158.234 14.7922 157.859 14.7677 157.549 14.7677C156.848 14.7677 156.278 14.8085 155.838 14.89C155.414 14.9715 155.104 15.1752 154.909 15.5012C154.729 15.8272 154.64 16.3325 154.64 17.0171C154.64 17.555 154.705 17.9951 154.835 18.3374C154.966 18.6797 155.227 18.9324 155.618 19.0954C156.025 19.2584 156.645 19.3399 157.476 19.3399ZM167.584 20.0733C167.029 20.0733 166.597 20.0081 166.288 19.8778C165.978 19.7311 165.75 19.4866 165.603 19.1443C165.456 18.802 165.383 18.3374 165.383 17.7506V11.198H164.454V10.2445H165.383V8.48407C165.383 8.23957 165.399 8.06027 165.432 7.94618C165.481 7.81578 165.554 7.73428 165.652 7.70168C165.75 7.66908 165.888 7.65278 166.068 7.65278H167.119C167.119 7.68538 167.111 7.75873 167.095 7.87283C167.095 7.97063 167.095 8.11733 167.095 8.31292V10.2445H169.368V11.198H167.095V17.555C167.095 18.1907 167.16 18.639 167.29 18.8998C167.421 19.1606 167.714 19.291 168.17 19.291C168.35 19.291 168.537 19.2747 168.733 19.2421C168.928 19.2095 169.067 19.1769 169.148 19.1443V19.9022C169.051 19.9185 168.863 19.9511 168.586 20C168.309 20.0489 167.975 20.0733 167.584 20.0733ZM175.607 20.1467C174.857 20.1467 174.18 20.0896 173.577 19.9756C172.99 19.8615 172.477 19.6333 172.037 19.291C171.613 18.9487 171.287 18.4434 171.059 17.7751C170.831 17.1068 170.717 16.2266 170.717 15.1345C170.717 14.0424 170.831 13.1622 171.059 12.4939C171.287 11.8256 171.613 11.3203 172.037 10.978C172.477 10.6357 172.99 10.4075 173.577 10.2934C174.18 10.1793 174.857 10.1222 175.607 10.1222C176.34 10.1222 177 10.1793 177.587 10.2934C178.19 10.4075 178.704 10.6357 179.127 10.978C179.551 11.3203 179.877 11.8256 180.105 12.4939C180.334 13.1622 180.448 14.0424 180.448 15.1345C180.448 16.2429 180.334 17.1312 180.105 17.7995C179.877 18.4678 179.551 18.9731 179.127 19.3154C178.704 19.6414 178.19 19.8615 177.587 19.9756C177 20.0896 176.34 20.1467 175.607 20.1467ZM175.607 19.1932C176.259 19.1932 176.813 19.0954 177.269 18.8998C177.742 18.7042 178.101 18.3211 178.345 17.7506C178.59 17.1801 178.712 16.3081 178.712 15.1345C178.712 13.9609 178.59 13.0888 178.345 12.5183C178.101 11.9478 177.742 11.5648 177.269 11.3692C176.813 11.1736 176.259 11.0758 175.607 11.0758C174.955 11.0758 174.392 11.1736 173.92 11.3692C173.463 11.5648 173.105 11.9478 172.844 12.5183C172.599 13.0888 172.477 13.9609 172.477 15.1345C172.477 16.3081 172.599 17.1801 172.844 17.7506C173.105 18.3211 173.463 18.7042 173.92 18.8998C174.392 19.0954 174.955 19.1932 175.607 19.1932ZM184.71 20H183.634C183.422 20 183.259 19.9511 183.145 19.8533C183.047 19.7392 182.999 19.5355 182.999 19.2421V10.7335C183.357 10.6194 183.846 10.4971 184.466 10.3667C185.101 10.2363 185.884 10.1711 186.813 10.1711C187.693 10.1711 188.386 10.2363 188.891 10.3667C189.413 10.4808 189.787 10.6438 190.016 10.8557C190.26 11.0676 190.415 11.3284 190.48 11.6381C190.562 11.9315 190.602 12.2657 190.602 12.6406H188.964L188.94 12.2983C188.924 11.9234 188.801 11.6544 188.573 11.4914C188.345 11.3121 188.076 11.2062 187.766 11.1736C187.457 11.1247 187.147 11.1002 186.837 11.1002C186.364 11.1002 185.941 11.141 185.566 11.2225C185.207 11.304 184.922 11.4099 184.71 11.5403V20ZM195.972 20.0978C195.695 20.0978 195.345 20.0896 194.921 20.0733C194.513 20.057 194.09 20.0244 193.65 19.9756C193.226 19.9104 192.843 19.8207 192.5 19.7066C192.337 19.6414 192.207 19.5762 192.109 19.511C192.011 19.4458 191.938 19.3317 191.889 19.1687C191.857 19.0057 191.84 18.7612 191.84 18.4352C192.199 18.6145 192.623 18.7612 193.112 18.8753C193.601 18.9731 194.09 19.0383 194.579 19.0709C195.068 19.1035 195.475 19.1198 195.801 19.1198C196.29 19.1198 196.763 19.1035 197.219 19.0709C197.692 19.022 198.116 18.9324 198.491 18.802C198.866 18.6553 199.159 18.4434 199.371 18.1663C199.599 17.8892 199.713 17.5224 199.713 17.066C199.713 16.3977 199.542 15.9739 199.2 15.7946C198.857 15.599 198.393 15.5012 197.806 15.5012H195.337C194.733 15.5012 194.163 15.4686 193.625 15.4034C193.103 15.3219 192.672 15.1182 192.329 14.7922C192.003 14.4499 191.84 13.8794 191.84 13.0807C191.84 12.2168 192.052 11.5729 192.476 11.1491C192.9 10.7253 193.495 10.4482 194.261 10.3178C195.043 10.1874 195.948 10.1222 196.975 10.1222C197.35 10.1222 197.798 10.1304 198.319 10.1467C198.841 10.163 199.338 10.2119 199.811 10.2934C200.137 10.3423 200.406 10.4075 200.618 10.489C200.846 10.5542 201.009 10.652 201.107 10.7824C201.221 10.9128 201.278 11.1002 201.278 11.3447V11.8337C201.131 11.6707 200.887 11.5403 200.544 11.4425C200.202 11.3447 199.803 11.2714 199.346 11.2225C198.906 11.1736 198.45 11.1491 197.977 11.1491C197.504 11.1328 197.064 11.1247 196.657 11.1247C196.135 11.1247 195.63 11.1573 195.141 11.2225C194.652 11.2877 194.253 11.4507 193.943 11.7115C193.65 11.956 193.503 12.3798 193.503 12.9829C193.503 13.4393 193.601 13.7734 193.796 13.9853C193.992 14.1972 194.253 14.3358 194.579 14.401C194.921 14.4499 195.304 14.4743 195.728 14.4743H198.246C198.866 14.4743 199.412 14.5314 199.884 14.6455C200.373 14.7433 200.748 14.9796 201.009 15.3545C201.286 15.7131 201.425 16.2836 201.425 17.066C201.425 17.9299 201.188 18.5819 200.716 19.022C200.243 19.4621 199.591 19.7555 198.76 19.9022C197.945 20.0326 197.015 20.0978 195.972 20.0978Z" fill="#E73232"/>
<path d="M57.4567 32.723V39.9744H62.9267V41H55.6214V33.4248C55.6214 33.2688 55.6274 33.1429 55.6394 33.0469C55.6514 32.9389 55.7053 32.861 55.8013 32.813C55.8973 32.753 56.0472 32.723 56.2511 32.723H57.4567ZM67.6803 41.108C66.9486 41.108 66.3308 41.06 65.827 40.964C65.3352 40.868 64.9393 40.6881 64.6395 40.4242C64.3516 40.1603 64.1476 39.7944 64.0277 39.3266C63.9077 38.8588 63.8477 38.253 63.8477 37.5093C63.8477 36.6216 63.9617 35.9019 64.1896 35.3501C64.4175 34.7983 64.8194 34.3964 65.3952 34.1445C65.983 33.8806 66.7987 33.7487 67.8423 33.7487C68.658 33.7487 69.3058 33.8506 69.7856 34.0545C70.2774 34.2465 70.6313 34.5524 70.8472 34.9722C71.0631 35.3921 71.1711 35.9259 71.1711 36.5736V37.7252H66.1149C66.1149 37.5333 66.1569 37.3773 66.2409 37.2574C66.3248 37.1374 66.4808 37.0774 66.7087 37.0774H69.6596L69.6416 36.6096C69.6296 35.9379 69.4857 35.446 69.2098 35.1341C68.9459 34.8223 68.4661 34.6663 67.7703 34.6663C67.1945 34.6663 66.7447 34.7563 66.4208 34.9362C66.0969 35.1162 65.869 35.41 65.7371 35.8179C65.6051 36.2137 65.5391 36.7655 65.5391 37.4733C65.5391 38.205 65.6111 38.7628 65.755 39.1467C65.911 39.5185 66.1629 39.7704 66.5108 39.9024C66.8706 40.0344 67.3685 40.1003 68.0042 40.1003C68.2321 40.1003 68.496 40.0943 68.7959 40.0823C69.1078 40.0703 69.4197 40.0523 69.7316 40.0284C70.0555 40.0044 70.3434 39.9744 70.5953 39.9384C70.8472 39.9024 71.0151 39.8664 71.0991 39.8304V40.0823C71.0991 40.2143 71.0691 40.3462 71.0091 40.4782C70.9491 40.6101 70.8232 40.7181 70.6313 40.8021C70.3794 40.922 70.0075 41 69.5157 41.036C69.0358 41.084 68.4241 41.108 67.6803 41.108ZM74.8682 41.054C74.3883 41.054 74.0105 41 73.7346 40.892C73.4707 40.7841 73.2787 40.5921 73.1588 40.3163C73.0388 40.0404 72.9788 39.6685 72.9788 39.2007V34.7383H72.2591V33.8206H72.9788V32.6331C72.9788 32.4171 72.9968 32.2612 73.0328 32.1652C73.0688 32.0573 73.1288 31.9913 73.2128 31.9673C73.3087 31.9313 73.4467 31.9133 73.6266 31.9133H74.6702C74.6702 31.9373 74.6702 31.9913 74.6702 32.0753C74.6702 32.1472 74.6702 32.2552 74.6702 32.3991V33.8206H76.3616V34.7383H74.6702V39.0387C74.6702 39.5065 74.7182 39.8424 74.8142 40.0463C74.9101 40.2383 75.1381 40.3342 75.4979 40.3342C75.6179 40.3342 75.7498 40.3222 75.8938 40.2983C76.0497 40.2743 76.1577 40.2503 76.2177 40.2263V40.928C76.1457 40.94 75.9897 40.964 75.7498 41C75.5099 41.036 75.216 41.054 74.8682 41.054ZM78.2931 32.1292H79.3367L78.3111 34.8283H77.5194L78.2931 32.1292ZM83.4759 41.072C83.248 41.072 82.9781 41.066 82.6662 41.054C82.3543 41.042 82.0364 41.018 81.7125 40.982C81.4007 40.934 81.1188 40.868 80.8668 40.7841C80.7109 40.7481 80.585 40.7001 80.489 40.6401C80.405 40.5802 80.339 40.4782 80.2911 40.3342C80.2551 40.1783 80.2371 39.9444 80.2371 39.6325C80.537 39.7645 80.8728 39.8724 81.2447 39.9564C81.6166 40.0284 81.9824 40.0763 82.3423 40.1003C82.7142 40.1243 83.0321 40.1363 83.296 40.1363C83.6198 40.1363 83.9377 40.1243 84.2496 40.1003C84.5735 40.0763 84.8674 40.0224 85.1313 39.9384C85.4072 39.8544 85.6231 39.7225 85.7791 39.5425C85.947 39.3626 86.031 39.1167 86.031 38.8048C86.031 38.385 85.923 38.1151 85.7071 37.9951C85.4912 37.8751 85.1913 37.8152 84.8074 37.8152H82.9181C82.4503 37.8152 82.0124 37.7852 81.6046 37.7252C81.2087 37.6652 80.8848 37.5093 80.6329 37.2574C80.393 37.0055 80.2731 36.5796 80.2731 35.9798C80.2731 35.3201 80.435 34.8283 80.7589 34.5044C81.0828 34.1805 81.5386 33.9706 82.1264 33.8746C82.7262 33.7786 83.4279 33.7307 84.2316 33.7307C84.5315 33.7307 84.8794 33.7367 85.2752 33.7487C85.6831 33.7606 86.061 33.7966 86.4088 33.8566C86.6967 33.8806 86.9246 33.9286 87.0926 34.0006C87.2725 34.0605 87.4045 34.1505 87.4884 34.2705C87.5724 34.3784 87.6144 34.5464 87.6144 34.7743V35.1881C87.5064 35.0562 87.3205 34.9602 87.0566 34.9002C86.7927 34.8283 86.4808 34.7743 86.1209 34.7383C85.7731 34.7023 85.4072 34.6843 85.0233 34.6843C84.6515 34.6723 84.3036 34.6663 83.9797 34.6663C83.6318 34.6663 83.296 34.6903 82.9721 34.7383C82.6602 34.7743 82.4083 34.8762 82.2164 35.0442C82.0244 35.2121 81.9285 35.488 81.9285 35.8719C81.9285 36.1718 81.9884 36.3877 82.1084 36.5196C82.2284 36.6516 82.3963 36.7356 82.6122 36.7715C82.8281 36.8075 83.074 36.8255 83.3499 36.8255H85.3292C85.809 36.8255 86.2289 36.8675 86.5888 36.9515C86.9486 37.0354 87.2305 37.2154 87.4344 37.4913C87.6384 37.7672 87.7403 38.199 87.7403 38.7868C87.7403 39.4586 87.5544 39.9564 87.1825 40.2803C86.8107 40.6041 86.3069 40.8201 85.6711 40.928C85.0353 41.024 84.3036 41.072 83.4759 41.072ZM96.3304 41C95.9825 41 95.6946 40.958 95.4667 40.874C95.2388 40.7901 95.0588 40.6401 94.9269 40.4242C94.7949 40.2083 94.699 39.9144 94.639 39.5425L93.5954 32.723H95.3227L96.2044 38.7688C96.2524 39.0567 96.3184 39.2486 96.4023 39.3446C96.4863 39.4406 96.6423 39.4886 96.8702 39.4886H97.32L98.7955 32.723H100.595L102.196 39.4886H102.682C102.862 39.4886 102.994 39.4526 103.078 39.3806C103.162 39.2966 103.222 39.1647 103.258 38.9847L104.014 32.723H105.327L104.391 39.5965C104.343 39.9924 104.241 40.2923 104.086 40.4962C103.942 40.7001 103.738 40.8381 103.474 40.91C103.21 40.97 102.874 41 102.466 41H101.045L99.7671 35.404L99.6052 34.7023L99.4612 35.422L98.2917 41H96.3304ZM110.22 41.108C109.62 41.108 109.087 41.066 108.619 40.982C108.163 40.886 107.767 40.7121 107.431 40.4602C107.107 40.2083 106.861 39.8364 106.693 39.3446C106.526 38.8528 106.442 38.211 106.442 37.4193C106.442 36.6276 106.526 35.9858 106.693 35.494C106.861 35.0022 107.107 34.6303 107.431 34.3784C107.767 34.1265 108.163 33.9586 108.619 33.8746C109.087 33.7786 109.62 33.7307 110.22 33.7307C110.796 33.7307 111.312 33.7786 111.768 33.8746C112.235 33.9586 112.631 34.1265 112.955 34.3784C113.279 34.6303 113.525 35.0022 113.693 35.494C113.873 35.9858 113.963 36.6276 113.963 37.4193C113.963 38.223 113.873 38.8708 113.693 39.3626C113.525 39.8544 113.279 40.2263 112.955 40.4782C112.631 40.7181 112.235 40.886 111.768 40.982C111.312 41.066 110.796 41.108 110.22 41.108ZM110.22 40.2083C110.652 40.2083 111.018 40.1423 111.318 40.0104C111.63 39.8784 111.864 39.6145 112.02 39.2187C112.175 38.8228 112.253 38.223 112.253 37.4193C112.253 36.6156 112.175 36.0158 112.02 35.62C111.864 35.2241 111.63 34.9602 111.318 34.8283C111.018 34.6963 110.652 34.6303 110.22 34.6303C109.788 34.6303 109.416 34.6963 109.105 34.8283C108.793 34.9602 108.553 35.2241 108.385 35.62C108.229 36.0158 108.151 36.6156 108.151 37.4193C108.151 38.223 108.229 38.8228 108.385 39.2187C108.553 39.6145 108.793 39.8784 109.105 40.0104C109.416 40.1423 109.788 40.2083 110.22 40.2083ZM117.382 41H116.23C116.05 41 115.913 40.952 115.817 40.8561C115.721 40.7601 115.673 40.5802 115.673 40.3163V34.1805C115.96 34.0965 116.362 34.0066 116.878 33.9106C117.394 33.8146 118.012 33.7666 118.731 33.7666C119.439 33.7666 119.997 33.8146 120.405 33.9106C120.813 33.9946 121.113 34.1265 121.305 34.3064C121.508 34.4744 121.634 34.6843 121.682 34.9362C121.742 35.1761 121.772 35.458 121.772 35.7819H120.153L120.135 35.53C120.135 35.2421 120.057 35.0382 119.901 34.9182C119.757 34.7863 119.583 34.7023 119.379 34.6663C119.175 34.6303 118.971 34.6123 118.767 34.6123C118.456 34.6123 118.174 34.6423 117.922 34.7023C117.682 34.7623 117.502 34.8403 117.382 34.9362V41ZM123.106 41L123.088 32.5431C123.088 32.2912 123.124 32.1232 123.196 32.0393C123.28 31.9433 123.454 31.8953 123.718 31.8953H124.797V37.4013L127.856 34.1985C128.012 34.0545 128.168 33.9526 128.324 33.8926C128.492 33.8206 128.726 33.7846 129.026 33.7846C129.254 33.7846 129.464 33.7906 129.655 33.8026C129.847 33.8026 130.021 33.8086 130.177 33.8206C130.141 33.8566 130.063 33.9166 129.943 34.0006C129.835 34.0845 129.715 34.1805 129.583 34.2885C129.452 34.3844 129.332 34.4804 129.224 34.5763L126.902 36.7895L130.033 40.2623C130.165 40.4062 130.297 40.5382 130.429 40.6581C130.561 40.7781 130.687 40.892 130.807 41C130.507 41.012 130.201 41.018 129.889 41.018C129.589 41.018 129.32 41.018 129.08 41.018C128.804 41.018 128.594 40.988 128.45 40.928C128.318 40.8561 128.174 40.7421 128.018 40.5862L125.733 38.0131L124.797 38.8048V41H123.106ZM132.061 38.193L131.647 32.741C131.647 32.4651 131.701 32.2552 131.809 32.1113C131.917 31.9673 132.091 31.8953 132.331 31.8953H133.429L133.393 33.5327L132.943 38.193H132.061ZM131.593 40.4062C131.593 40.1303 131.683 39.9624 131.863 39.9024C132.043 39.8304 132.259 39.7944 132.511 39.7944C132.775 39.7944 132.985 39.8304 133.141 39.9024C133.309 39.9624 133.393 40.1303 133.393 40.4062C133.393 40.5981 133.351 40.7421 133.267 40.8381C133.195 40.922 133.087 40.976 132.943 41C132.811 41.024 132.661 41.036 132.493 41.036C132.337 41.036 132.187 41.024 132.043 41C131.911 40.976 131.803 40.922 131.719 40.8381C131.635 40.7421 131.593 40.5981 131.593 40.4062Z" fill="#0A0000"/>
</svg>
