<svg width="25" height="24" viewBox="0 0 25 24" fill="none" xmlns="http://www.w3.org/2000/svg">
<path d="M16.3419 12.517C16.3419 11.9454 15.9048 11.6764 15.0811 11.6764H14.2573V13.4416H15.0811C15.888 13.4415 16.3419 13.1389 16.3419 12.517ZM9.75192 13.4499C10.6177 13.4499 11.1724 12.6598 11.1724 11.4243C11.1724 10.197 10.6177 9.44897 9.75192 9.44897C8.88616 9.44897 8.33142 10.197 8.33142 11.4243C8.33142 12.6598 8.88618 13.4499 9.75192 13.4499ZM16.0477 10.1719C16.0477 9.66751 15.6863 9.45739 14.9718 9.45739H14.2573V10.9788H14.955C15.7199 10.9788 16.0477 10.6846 16.0477 10.1719Z" fill="#E73232"/>
<path d="M1.35925 4.59734V22.5278C1.35925 23.3408 2.01834 23.9999 2.83135 23.9999H15.9664V18.0726C15.9664 17.1078 16.7485 16.3257 17.7133 16.3257H23.6406V4.59734C23.6406 3.78433 22.9815 3.12524 22.1685 3.12524H18.9728C18.5268 3.7939 17.7658 4.23533 16.9034 4.23533C16.4902 4.23533 16.1003 4.13383 15.757 3.95465L13.3611 5.54599C13.1945 5.65664 12.9965 5.45849 13.1071 5.29193L14.5462 3.12527H2.83135C2.01831 3.12524 1.35925 3.78433 1.35925 4.59734ZM19.8975 11.9369L19.141 11.6092C18.603 11.3822 18.0314 10.9535 18.0314 10.1466C18.0314 9.27248 18.8047 8.60005 19.8806 8.60005C20.5194 8.60005 21.1414 8.86902 21.57 9.2977L21.0741 9.91971C20.7211 9.62554 20.3513 9.44901 19.8806 9.44901C19.3595 9.44901 19.0149 9.69276 19.0149 10.0962C19.0149 10.5249 19.4351 10.6846 19.889 10.8695L20.6371 11.1805C21.2843 11.4579 21.7467 11.8698 21.7467 12.6683C21.7467 13.5593 21.007 14.299 19.7714 14.299C19.0317 14.299 18.3088 14.0048 17.7876 13.492L18.3592 12.828C18.7543 13.1978 19.2839 13.45 19.7881 13.45C20.4102 13.45 20.7464 13.1727 20.7464 12.744C20.7464 12.29 20.3934 12.1471 19.8975 11.9369ZM13.2823 8.70084H15.0391C16.1738 8.70084 17.006 9.04548 17.006 10.0541C17.006 10.5753 16.7034 11.0796 16.0645 11.2477V11.2813C16.8547 11.4158 17.2917 11.8445 17.2917 12.5841C17.2917 13.6852 16.3924 14.198 15.182 14.198H13.2823L13.2823 8.70084ZM9.75193 8.6C11.1893 8.6 12.1811 9.65066 12.1811 11.4242C12.1811 13.2062 11.1893 14.2989 9.75193 14.2989C8.32301 14.2989 7.33116 13.2062 7.33116 11.4242C7.33116 9.65066 8.32304 8.6 9.75193 8.6ZM3.64123 12.8699C3.85976 13.2734 4.16235 13.4499 4.49855 13.4499C5.01128 13.4499 5.27187 13.1726 5.27187 12.3909V8.70084H6.24689V12.4749C6.24689 13.4752 5.75938 14.2989 4.60783 14.2989C3.84293 14.2989 3.31339 13.9795 2.96875 13.3659L3.64123 12.8699Z" fill="#E73232"/>
<path d="M17.7133 17.3366C17.3069 17.3366 16.9773 17.6662 16.9773 18.0727V24L23.6409 17.3366H17.7133ZM15.823 3.12534C16.025 3.28443 16.2597 3.39682 16.5103 3.45445C16.6392 3.48421 16.7711 3.49928 16.9035 3.49937C17.3114 3.49937 17.6864 3.35938 17.984 3.12534C18.3913 2.80498 18.6532 2.30808 18.6532 1.74969C18.6532 0.783352 17.8698 0 16.9035 0C15.9372 0 15.1538 0.783352 15.1538 1.74969C15.1538 1.88497 15.1697 2.01645 15.1987 2.14291C15.2896 2.53846 15.5143 2.88261 15.823 3.12534Z" fill="#E73232"/>
</svg>
