<svg width="32" height="32" viewBox="0 0 32 32" fill="none" xmlns="http://www.w3.org/2000/svg">
<g clip-path="url(#clip0_17_21669)">
<path d="M16 32C24.8366 32 32 24.8366 32 16C32 7.16344 24.8366 0 16 0C7.16344 0 0 7.16344 0 16C0 24.8366 7.16344 32 16 32Z" fill="#0B69C7"/>
<path d="M12.4208 10.1832C12.4212 10.6155 12.2934 11.0383 12.0534 11.398C11.8135 11.7577 11.4722 12.0381 11.0728 12.2038C10.6734 12.3694 10.2338 12.4129 9.80975 12.3286C9.38565 12.2444 8.99608 12.0362 8.69034 11.7305C8.3846 11.4247 8.17643 11.0352 8.09218 10.6111C8.00793 10.187 8.05138 9.74742 8.21704 9.34803C8.3827 8.94864 8.66312 8.60737 9.0228 8.36741C9.38249 8.12745 9.80528 7.99958 10.2377 8C10.8165 8.00056 11.3715 8.23075 11.7808 8.64005C12.1901 9.04935 12.4203 9.60432 12.4208 10.1832Z" fill="white"/>
<path d="M11.3874 13.2779H9.08842C8.7896 13.2779 8.54736 13.5201 8.54736 13.8189V23.4589C8.54736 23.7578 8.7896 24 9.08842 24H11.3874C11.6862 24 11.9284 23.7578 11.9284 23.4589V13.8189C11.9284 13.5201 11.6862 13.2779 11.3874 13.2779Z" fill="white"/>
<path d="M23.947 18.8358V23.5032C23.947 23.6349 23.8947 23.7613 23.8015 23.8545C23.7083 23.9476 23.582 24 23.4502 24H20.9828C20.8511 24 20.7247 23.9476 20.6315 23.8545C20.5383 23.7613 20.486 23.6349 20.486 23.5032V18.981C20.486 18.3053 20.6818 16.0337 18.7218 16.0337C17.2018 16.0337 16.8923 17.5958 16.827 18.2968V23.5137C16.8243 23.6429 16.7713 23.766 16.6794 23.8567C16.5874 23.9475 16.4636 23.9989 16.3344 24H13.947C13.8817 24.0003 13.817 23.9876 13.7566 23.9627C13.6962 23.9379 13.6413 23.9013 13.5951 23.8551C13.5489 23.8089 13.5123 23.754 13.4875 23.6936C13.4626 23.6332 13.4499 23.5685 13.4502 23.5032V13.7768C13.4499 13.7114 13.4626 13.6466 13.4874 13.5861C13.5123 13.5255 13.5488 13.4705 13.595 13.4242C13.6411 13.3778 13.696 13.341 13.7564 13.3159C13.8168 13.2908 13.8816 13.2779 13.947 13.2779H16.3344C16.4006 13.2768 16.4664 13.2889 16.5279 13.3134C16.5894 13.338 16.6454 13.3746 16.6927 13.421C16.7399 13.4675 16.7774 13.5228 16.803 13.5839C16.8286 13.645 16.8418 13.7106 16.8418 13.7768V14.6189C17.406 13.7768 18.2439 13.12 20.027 13.12C23.9702 13.1179 23.947 16.8084 23.947 18.8358Z" fill="white"/>
</g>
<defs>
<clipPath id="clip0_17_21669">
<rect width="32" height="32" fill="white"/>
</clipPath>
</defs>
</svg>
