<svg width="120" height="120" viewBox="0 0 120 120" fill="none" xmlns="http://www.w3.org/2000/svg">
<g filter="url(#filter0_i_941_15306)">
<rect width="120" height="120" rx="60" fill="#E73232"/>
<rect x="1" y="1" width="118" height="118" rx="59" stroke="white" stroke-opacity="0.3" stroke-width="2"/>
<g clip-path="url(#clip0_941_15306)">
<g filter="url(#filter1_d_941_15306)">
<path d="M46.1494 48.5471C46.1494 41.4824 51.8965 35.7353 58.9612 35.7353C66.0247 35.7353 71.7718 41.4824 71.7718 48.5471V54.5906H77.507V48.5471C77.507 38.32 69.187 30 58.9612 30C48.7341 30 40.4141 38.32 40.4141 48.5471V54.5906H46.1494V48.5471ZM83.5435 58.12H36.4565C35.1565 58.12 34.1035 59.1729 34.1035 60.4729V87.6471C34.1035 88.9471 35.1565 90 36.4565 90H83.5435C84.8435 90 85.8965 88.9471 85.8965 87.6471V60.4729C85.8965 59.1729 84.8435 58.12 83.5435 58.12ZM61.7647 83.7353C61.7647 84.7094 60.9741 85.5 60 85.5C59.0259 85.5 58.2353 84.7094 58.2353 83.7353V83.5788C58.2353 82.6035 59.0259 81.8141 60 81.8141C60.9741 81.8141 61.7647 82.6035 61.7647 83.5788V83.7353ZM62.0059 75.2541C61.8612 75.3012 61.7647 75.4271 61.7647 75.5659V77.1282C61.7647 78.1035 60.9741 78.8929 60 78.8929C59.0259 78.8929 58.2353 78.1035 58.2353 77.1282V75.5659C58.2353 73.9047 59.3023 72.4247 60.9094 71.8988C62.1823 71.4824 63.007 70.2529 62.9153 68.9094C62.8153 67.4682 61.6529 66.3059 60.2106 66.2059C58.4894 66.0847 57.0776 67.4471 57.0776 69.1212C57.0776 70.0941 56.2906 70.8859 55.3129 70.8859C54.3388 70.8859 53.5482 70.0953 53.5482 69.1212C53.5482 65.4671 56.6282 62.4212 60.4541 62.6847C63.6447 62.9047 66.2165 65.4765 66.4365 68.6671C66.64 71.6259 64.8188 74.3341 62.0059 75.2541Z" fill="white" fill-opacity="0.7" shape-rendering="crispEdges"/>
<path d="M60.7539 71.4236L60.9094 71.8988L60.7539 71.4236C58.9423 72.0164 57.7353 73.6874 57.7353 75.5659V77.1282C57.7353 78.3799 58.7499 79.3929 60 79.3929C61.25 79.3929 62.2647 78.3799 62.2647 77.1282V75.6946C65.2371 74.6712 67.152 71.7828 66.9353 68.6327L66.9353 68.6327C66.6981 65.193 63.9281 62.4231 60.4885 62.1859C56.3653 61.9019 53.0482 65.1858 53.0482 69.1212C53.0482 70.3714 54.0627 71.3859 55.3129 71.3859C56.5676 71.3859 57.5776 70.3694 57.5776 69.1212C57.5776 67.7322 58.7483 66.6042 60.1755 66.7046L60.176 66.7047C61.3694 66.7874 62.3335 67.7515 62.4164 68.9435C62.4927 70.0606 61.8075 71.0789 60.7539 71.4236ZM58.9612 35.2353C51.6203 35.2353 45.6494 41.2062 45.6494 48.5471V54.0906H40.9141V48.5471C40.9141 38.5961 49.0102 30.5 58.9612 30.5C68.9109 30.5 77.007 38.5961 77.007 48.5471V54.0906H72.2718V48.5471C72.2718 41.2062 66.3009 35.2353 58.9612 35.2353ZM36.4565 58.62H83.5435C84.5674 58.62 85.3965 59.4491 85.3965 60.4729V87.6471C85.3965 88.6709 84.5674 89.5 83.5435 89.5H36.4565C35.4326 89.5 34.6035 88.6709 34.6035 87.6471V60.4729C34.6035 59.4491 35.4326 58.62 36.4565 58.62ZM60 86C61.2502 86 62.2647 84.9856 62.2647 83.7353V83.5788C62.2647 82.3272 61.25 81.3141 60 81.3141C58.7499 81.3141 57.7353 82.3272 57.7353 83.5788V83.7353C57.7353 84.9856 58.7497 86 60 86Z" stroke="white" stroke-opacity="0.3" shape-rendering="crispEdges"/>
</g>
</g>
</g>
<defs>
<filter id="filter0_i_941_15306" x="0" y="-6" width="120" height="126" filterUnits="userSpaceOnUse" color-interpolation-filters="sRGB">
<feFlood flood-opacity="0" result="BackgroundImageFix"/>
<feBlend mode="normal" in="SourceGraphic" in2="BackgroundImageFix" result="shape"/>
<feColorMatrix in="SourceAlpha" type="matrix" values="0 0 0 0 0 0 0 0 0 0 0 0 0 0 0 0 0 0 127 0" result="hardAlpha"/>
<feOffset dy="-6"/>
<feGaussianBlur stdDeviation="16.5"/>
<feComposite in2="hardAlpha" operator="arithmetic" k2="-1" k3="1"/>
<feColorMatrix type="matrix" values="0 0 0 0 1 0 0 0 0 1 0 0 0 0 1 0 0 0 1 0"/>
<feBlend mode="normal" in2="shape" result="effect1_innerShadow_941_15306"/>
</filter>
<filter id="filter1_d_941_15306" x="30.1035" y="30" width="59.793" height="68" filterUnits="userSpaceOnUse" color-interpolation-filters="sRGB">
<feFlood flood-opacity="0" result="BackgroundImageFix"/>
<feColorMatrix in="SourceAlpha" type="matrix" values="0 0 0 0 0 0 0 0 0 0 0 0 0 0 0 0 0 0 127 0" result="hardAlpha"/>
<feOffset dy="4"/>
<feGaussianBlur stdDeviation="2"/>
<feComposite in2="hardAlpha" operator="out"/>
<feColorMatrix type="matrix" values="0 0 0 0 0.752486 0 0 0 0 0.0194054 0 0 0 0 0.0194054 0 0 0 1 0"/>
<feBlend mode="normal" in2="BackgroundImageFix" result="effect1_dropShadow_941_15306"/>
<feBlend mode="normal" in="SourceGraphic" in2="effect1_dropShadow_941_15306" result="shape"/>
</filter>
<clipPath id="clip0_941_15306">
<rect width="60" height="60" fill="white" transform="translate(30 30)"/>
</clipPath>
</defs>
</svg>
