<svg width="283" height="314" viewBox="0 0 283 314" fill="none" xmlns="http://www.w3.org/2000/svg">
<g clip-path="url(#clip0_685_534)">
<rect width="283" height="313.817" fill="white"/>
<path d="M64.9484 130.647C64.9484 130.647 66.182 113.377 62.2757 110.623C58.3694 107.869 55.8065 118.869 55.8065 118.869C55.8065 118.869 49.5049 99.1849 45.9952 99.3903C42.4855 99.5956 46.1206 111.01 46.1206 111.01C46.1206 111.01 40.5872 102.431 38.0713 101.966C35.5538 101.5 34.7653 104.317 35.5664 106.258C35.5664 106.258 30.5596 104.336 31.1427 109.695C31.1427 109.695 27.6283 108.72 28.4811 113.511C29.3338 118.301 33.9298 127.082 35.8893 129.844C40.479 136.314 46.848 140.983 46.848 140.983C52.8046 140.361 62.7428 137.546 64.9484 130.647Z" fill="white"/>
<path d="M46.8489 141.56C46.7267 141.56 46.6075 141.521 46.5088 141.448C46.4445 141.401 40.0113 136.649 35.42 130.179C33.5609 127.56 28.7987 118.586 27.9146 113.614C27.5838 111.751 27.8346 110.427 28.6639 109.673C29.2486 109.14 29.9775 109.029 30.523 109.041C30.4901 107.616 30.8804 106.583 31.6877 105.962C32.6204 105.243 33.876 105.288 34.7475 105.447C34.5672 104.293 34.8181 103.103 35.4592 102.313C36.1034 101.518 37.069 101.196 38.1789 101.401C39.9392 101.727 42.7686 105.24 44.6701 107.872C44.0086 105.044 43.4144 101.235 44.5055 99.6468C44.855 99.1389 45.3598 98.8521 45.9649 98.816C45.9899 98.8145 46.015 98.8145 46.0385 98.8145C49.3288 98.8145 53.9374 111.463 55.7589 116.871C56.4956 114.468 57.9926 110.595 60.1558 109.77C60.9678 109.461 61.8158 109.594 62.6106 110.154C66.6658 113.013 65.6548 128.889 65.5262 130.69C65.5231 130.736 65.5137 130.781 65.4996 130.825C63.3536 137.537 54.1443 140.804 46.9085 141.56C46.8881 141.558 46.8693 141.56 46.8489 141.56ZM30.4493 110.19C30.1295 110.19 29.7298 110.256 29.4351 110.529C28.9304 110.993 28.7971 111.99 29.0495 113.411C29.9069 118.225 34.5484 126.958 36.3605 129.513C40.422 135.238 45.9601 139.586 47.0135 140.387C53.8433 139.627 62.3864 136.611 64.3819 130.537C64.7158 125.77 64.918 113.19 61.9459 111.095C61.46 110.751 61.0211 110.673 60.5665 110.845C58.5021 111.631 56.8373 116.998 56.3702 119C56.3106 119.252 56.0912 119.434 55.8325 119.445C55.5754 119.457 55.3388 119.291 55.2604 119.045C52.246 109.634 47.9979 99.965 46.0652 99.965C46.0542 99.965 46.0432 99.965 46.0323 99.9666C45.7814 99.9807 45.6027 100.084 45.4554 100.299C44.3926 101.846 45.6388 107.583 46.6734 110.836C46.7612 111.112 46.631 111.408 46.3693 111.532C46.1091 111.656 45.7956 111.566 45.6388 111.323C43.5508 108.088 39.6226 102.84 37.9688 102.533C37.2744 102.404 36.7304 102.573 36.3542 103.039C35.7915 103.733 35.6818 105.023 36.1019 106.039C36.1896 106.251 36.1426 106.495 35.9827 106.66C35.8228 106.825 35.5783 106.878 35.3651 106.796C34.829 106.593 33.2505 106.21 32.3915 106.875C31.7974 107.334 31.5717 108.262 31.7206 109.632C31.741 109.822 31.6673 110.01 31.5215 110.134C31.3757 110.258 31.1767 110.301 30.9948 110.25C30.9854 110.25 30.7534 110.19 30.4493 110.19Z" fill="black"/>
<path d="M40.7576 114.95C40.5679 114.95 40.3814 114.856 40.2717 114.684L35.0831 106.567C34.9122 106.299 34.9906 105.943 35.2587 105.771C35.5283 105.598 35.8841 105.678 36.055 105.946L41.2435 114.063C41.4144 114.331 41.336 114.689 41.068 114.859C40.9708 114.921 40.8626 114.95 40.7576 114.95ZM36.5754 118.292C36.3904 118.292 36.2086 118.203 36.0973 118.038L30.6658 110.017C30.4871 109.754 30.556 109.395 30.8194 109.216C31.0827 109.038 31.4417 109.107 31.6204 109.37L37.0519 117.391C37.2306 117.654 37.1617 118.013 36.8983 118.192C36.798 118.261 36.6867 118.292 36.5754 118.292Z" fill="black"/>
<path d="M47.961 152.052C47.914 152.052 47.867 152.046 47.8215 152.035C47.6632 151.996 47.5299 151.891 47.4531 151.747L42.8163 143.022C40.1061 138.789 45.7179 132.663 51.3563 128.696C57.708 124.228 65.494 121.484 68.082 124.884L74.3757 133.75C74.465 133.877 74.5011 134.035 74.4729 134.187C74.4446 134.341 74.3553 134.475 74.2268 134.562L48.2824 151.955C48.1867 152.019 48.0739 152.052 47.961 152.052ZM64.3606 124.487C61.1629 124.487 56.222 126.683 52.0178 129.64C46.5581 133.48 41.6564 139.117 43.7961 142.417C43.8055 142.431 43.8133 142.445 43.8211 142.459L48.1711 150.641L73.0934 133.933L67.154 125.565C66.5834 124.818 65.6037 124.487 64.3606 124.487Z" fill="black"/>
<path d="M152.68 151.477C152.68 151.477 116.873 203.357 90.1037 203.385C69.5971 203.402 44.1857 149.339 44.1857 149.339C42.7764 141.296 68.0217 123.159 73.6978 132.706L92.8579 163.616C92.8579 163.616 107.35 141.015 116.188 134.962C124.917 128.991 138.547 126.77 138.547 126.77L152.68 151.477Z" fill="white"/>
<path d="M90.0954 203.959C69.4618 203.959 44.7088 151.802 43.6648 149.583C43.6428 149.536 43.6272 149.487 43.6193 149.437C42.6192 143.725 53.418 133.995 62.5192 130.623C68.1279 128.545 72.274 129.179 74.1942 132.41L92.87 162.538C95.5254 158.47 107.848 139.975 115.864 134.486C124.599 128.51 137.894 126.292 138.457 126.201C138.692 126.162 138.931 126.275 139.05 126.483L153.181 151.189C153.291 151.382 153.281 151.62 153.155 151.804C151.686 153.932 116.867 203.932 90.1048 203.961C90.1032 203.959 90.0985 203.959 90.0954 203.959ZM44.7433 149.164C45.8139 151.412 70.5262 202.807 90.0954 202.807C90.0985 202.807 90.1001 202.807 90.1048 202.807C115.225 202.782 149.029 155.658 151.999 151.445L138.25 127.408C135.965 127.827 124.216 130.17 116.515 135.437C107.874 141.355 93.4891 163.701 93.3449 163.927C93.2383 164.092 93.0565 164.192 92.859 164.192C92.8574 164.192 92.8558 164.192 92.8543 164.192C92.6568 164.19 92.4734 164.087 92.3683 163.919L73.2083 133.009C71.0388 129.36 65.8314 130.626 62.9189 131.705C53.835 135.07 44.0441 144.493 44.7433 149.164Z" fill="black"/>
<path d="M147.545 313.089L151.175 297.431L154.489 313.089H205.897L199.62 246.773L117.424 242.195L105.207 313.089H147.545Z" fill="black"/>
<path d="M205.899 313.666H154.491C154.218 313.666 153.983 313.474 153.927 313.208L151.151 300.092L148.106 313.219C148.045 313.481 147.813 313.666 147.545 313.666H105.209C105.04 313.666 104.878 313.59 104.769 313.46C104.659 313.33 104.612 313.159 104.642 312.992L116.859 242.098C116.909 241.809 117.162 241.606 117.459 241.62L199.653 246.197C199.939 246.213 200.168 246.434 200.196 246.719L206.472 313.037C206.488 313.199 206.435 313.358 206.325 313.479C206.215 313.597 206.062 313.666 205.899 313.666ZM154.958 312.513H205.265L199.095 247.321L117.909 242.8L105.896 312.513H147.091L150.618 297.302C150.679 297.04 150.911 296.855 151.179 296.855C151.18 296.855 151.182 296.855 151.185 296.855C151.455 296.858 151.687 297.048 151.743 297.313L154.958 312.513Z" fill="black"/>
<path d="M189.889 309.038C189.599 309.038 189.35 308.82 189.317 308.525C188.024 296.891 186.856 284.656 185.727 272.825C185.14 266.677 184.533 260.319 183.917 254.124C183.886 253.807 184.116 253.525 184.433 253.494C184.751 253.459 185.031 253.693 185.063 254.009C185.68 260.207 186.287 266.565 186.873 272.715C188.002 284.542 189.17 296.772 190.461 308.398C190.496 308.715 190.269 309 189.952 309.035C189.932 309.036 189.91 309.038 189.889 309.038Z" fill="white"/>
<path d="M151.177 298.004C150.889 298.004 150.64 297.788 150.605 297.495C150.585 297.326 148.456 280.453 135.756 277.609C135.445 277.54 135.25 277.231 135.319 276.921C135.389 276.61 135.696 276.415 136.007 276.485C149.509 279.507 151.729 297.183 151.749 297.362C151.787 297.678 151.56 297.964 151.245 298.001C151.223 298.003 151.199 298.004 151.177 298.004Z" fill="white"/>
<path d="M115.663 145.277C109.275 179.262 106.605 254.097 106.605 254.097C106.605 263.803 203.005 263.803 203.005 254.097C203.005 254.097 212.816 140.127 200.321 132.974C196.137 130.581 191.298 128.733 186.124 127.372C173.571 124.065 159.079 123.635 147.324 125.237C143.842 125.71 134.632 127.46 131.749 128.269" fill="white"/>
<path d="M154.805 261.955C142.153 261.955 130.357 261.306 121.59 260.13C106.027 258.04 106.027 255.075 106.027 254.1C106.054 253.33 108.772 178.812 115.094 145.173C115.154 144.861 115.453 144.654 115.766 144.713C116.08 144.773 116.285 145.074 116.227 145.386C109.921 178.939 107.206 253.372 107.179 254.12C107.179 257.859 128.098 260.802 154.803 260.802C181.508 260.802 202.427 257.859 202.427 254.1C205.811 214.757 209.662 138.99 200.033 133.477C196.065 131.207 191.336 129.342 185.975 127.931C174.419 124.886 159.998 124.092 147.4 125.809C143.902 126.284 134.68 128.046 131.903 128.825C131.596 128.911 131.279 128.732 131.193 128.425C131.106 128.118 131.285 127.801 131.592 127.715C134.485 126.905 143.664 125.154 147.244 124.668C159.985 122.932 174.574 123.737 186.27 126.817C191.728 128.253 196.551 130.156 200.607 132.477C205.988 135.557 208.112 157.011 206.924 196.239C206.043 225.304 203.604 253.865 203.579 254.15C203.582 261.734 159.797 261.955 154.805 261.955Z" fill="black"/>
<path d="M182.3 126.165C182.3 126.165 170.783 133.489 162.033 132.867C153.283 132.244 149.398 124.356 149.398 124.356C149.398 124.356 156.713 120.445 155.647 106.041C164.442 108.761 177.649 105.986 177.649 105.986C177.649 105.986 175.199 122.124 182.3 126.165Z" fill="white"/>
<path d="M163.124 133.483C162.743 133.483 162.365 133.47 161.991 133.444C153.014 132.806 149.044 124.948 148.88 124.612C148.742 124.333 148.852 123.996 149.124 123.849C149.192 123.811 156.092 119.889 155.07 106.084C155.056 105.894 155.138 105.709 155.286 105.59C155.437 105.471 155.633 105.433 155.816 105.49C164.366 108.132 177.398 105.449 177.528 105.421C177.713 105.381 177.905 105.436 178.042 105.566C178.179 105.697 178.245 105.885 178.216 106.071C178.193 106.229 175.907 121.866 182.582 125.664C182.758 125.764 182.869 125.949 182.874 126.151C182.878 126.354 182.778 126.543 182.607 126.651C182.151 126.945 171.766 133.483 163.124 133.483ZM150.165 124.551C151.137 126.191 154.957 131.787 162.072 132.293C169.253 132.806 178.519 127.73 181.22 126.144C175.594 121.881 176.585 109.956 176.972 106.704C174.058 107.242 163.899 108.855 156.274 106.82C156.92 118.787 151.819 123.385 150.165 124.551Z" fill="black"/>
<path d="M170.182 108.998C163.131 112.198 151.24 112.478 145.866 105.385C139.471 96.9455 139.722 86.8709 141.662 75.257C141.662 75.257 141.662 75.2523 141.667 75.2414C143.93 61.6586 152.119 49.3189 164.99 49.0508C189.383 48.543 181.247 80.861 181.247 80.861C181.247 80.861 186.326 78.2902 187.323 83.1559C188.583 89.2834 179.669 93.8026 179.669 93.8026L177.579 108.937" fill="white"/>
<path d="M159.605 111.719C154.247 111.719 148.731 110.124 145.405 105.734C138.998 97.2791 139.047 87.3974 141.091 75.1627H141.093C141.094 75.1501 141.097 75.1376 141.099 75.1266C143.124 63.0142 150.589 48.7762 164.974 48.4768C171.095 48.3483 175.746 50.2419 178.822 54.1027C185.186 62.0941 182.88 75.9574 182.046 79.9327C183.026 79.6286 184.517 79.3668 185.791 79.9813C186.873 80.5033 187.578 81.5332 187.885 83.0396C189.105 88.9727 181.747 93.3274 180.197 94.1723L178.148 109.014C178.104 109.329 177.811 109.551 177.497 109.506C177.182 109.462 176.961 109.172 177.005 108.857L179.095 93.7224C179.121 93.5358 179.236 93.3728 179.405 93.2866C179.49 93.2427 187.912 88.8928 186.755 83.27C186.523 82.1351 186.029 81.3764 185.291 81.019C183.742 80.2666 181.526 81.3639 181.504 81.3749C181.303 81.4752 181.06 81.4501 180.885 81.309C180.709 81.1679 180.631 80.9375 180.686 80.7196C180.728 80.5488 184.89 63.5676 177.919 54.8175C175.08 51.2545 170.73 49.5098 164.999 49.6274C151.31 49.9127 144.179 63.6553 142.232 75.3367C142.231 75.3508 142.228 75.3649 142.223 75.3806C140.232 87.3096 140.171 96.9186 146.322 105.038C151.766 112.224 163.634 111.337 169.94 108.475C170.23 108.343 170.572 108.471 170.703 108.761C170.835 109.051 170.707 109.393 170.417 109.525C167.568 110.818 163.631 111.719 159.605 111.719Z" fill="black"/>
<path d="M164.188 79.8953C164.383 78.7333 163.82 77.6703 162.93 77.5211C162.04 77.3719 161.161 78.1929 160.966 79.3549C160.771 80.517 161.335 81.5799 162.224 81.7292C163.114 81.8784 163.993 81.0573 164.188 79.8953Z" fill="black"/>
<path d="M161.297 75.51C161.297 75.51 164.332 74.1839 167.159 77.4992Z" fill="white"/>
<path d="M167.159 78.0733C166.996 78.0733 166.834 78.0043 166.72 77.8711C164.199 74.9147 161.555 76.0245 161.526 76.037C161.235 76.164 160.895 76.0324 160.768 75.7392C160.639 75.4477 160.772 75.1075 161.066 74.9805C161.205 74.9194 164.527 73.5243 167.598 77.1234C167.804 77.3663 167.775 77.73 167.533 77.9353C167.424 78.0278 167.29 78.0733 167.159 78.0733Z" fill="black"/>
<path d="M151.885 77.5527C151.908 76.3747 151.195 75.4056 150.293 75.3883C149.391 75.371 148.642 76.312 148.619 77.49C148.596 78.668 149.309 79.6371 150.211 79.6544C151.113 79.6717 151.863 78.7308 151.885 77.5527Z" fill="black"/>
<path d="M148.375 73.6348C148.375 73.6348 151.182 71.8776 154.465 74.743Z" fill="white"/>
<path d="M154.466 75.3196C154.331 75.3196 154.197 75.2726 154.087 75.177C151.188 72.6454 148.779 74.064 148.679 74.1252C148.408 74.2897 148.053 74.2067 147.887 73.937C147.721 73.6674 147.801 73.3147 148.071 73.147C148.201 73.0655 151.283 71.1985 154.846 74.3101C155.085 74.5202 155.11 74.8838 154.9 75.1237C154.788 75.2538 154.628 75.3196 154.466 75.3196Z" fill="black"/>
<path d="M156.149 80.5391C155.319 83.6945 154.488 86.85 153.657 90.0039C153.521 90.5227 153.383 91.0682 153.503 91.5902C153.66 92.269 154.239 92.7894 154.88 93.0606C155.521 93.3318 156.231 93.3945 156.925 93.4525" fill="white"/>
<path d="M156.929 94.0285C156.913 94.0285 156.896 94.0285 156.88 94.0269C156.183 93.9674 155.393 93.9 154.659 93.5912C153.77 93.2165 153.129 92.5158 152.944 91.7195C152.789 91.0455 152.961 90.3855 153.101 89.8557L155.593 80.3909C155.675 80.0836 155.99 79.8987 156.297 79.9802C156.604 80.0617 156.789 80.3768 156.708 80.684L154.215 90.1488C154.102 90.5768 153.974 91.0627 154.066 91.4593C154.167 91.8904 154.565 92.2995 155.106 92.5284C155.67 92.7666 156.333 92.8231 156.976 92.8779C157.292 92.9046 157.528 93.1836 157.501 93.5002C157.477 93.8012 157.225 94.0285 156.929 94.0285Z" fill="black"/>
<path d="M163.03 98.7958C160.213 98.2174 157.708 99.2175 155.816 100.161Z" fill="white"/>
<path d="M155.819 100.738C155.607 100.738 155.404 100.62 155.303 100.418C155.161 100.133 155.277 99.7879 155.562 99.6453C157.526 98.6656 160.164 97.6185 163.149 98.2314C163.461 98.2956 163.661 98.5997 163.597 98.9117C163.533 99.2236 163.23 99.4243 162.917 99.36C160.279 98.8176 157.876 99.7801 156.076 100.677C155.993 100.717 155.905 100.738 155.819 100.738Z" fill="black"/>
<path d="M204.232 83.6711C202.094 103.007 177.47 109.738 177.58 108.937L179.669 93.8037C179.669 93.8037 188.584 89.2861 187.323 83.1554C186.325 78.2913 181.248 80.8637 181.248 80.8637C181.248 80.8637 180.519 83.4846 178.655 83.041C176.686 82.5801 178.479 73.874 178.551 72.4428L177.581 71.8236C172.504 72.0697 167.486 69.7388 164.085 65.9892C161.338 62.9623 157.211 61.4716 153.179 62.1441C149.174 62.8118 144.89 61.9387 141.64 59.4855C136.284 55.4444 134.287 47.533 137.079 41.4353C138.038 39.3301 139.513 37.449 141.35 36.0398C146.52 32.0927 154.57 32.5912 159.203 37.1527C160.421 38.3535 161.517 39.8442 163.161 40.3004C164.713 40.7283 166.336 40.1138 167.854 39.5652C172.367 37.9255 177.12 36.8016 181.923 36.8784C186.721 36.9552 191.584 38.2986 195.412 41.1986C199.238 44.0985 201.914 48.6491 202.013 53.452C202.09 57.1483 200.702 60.7113 200.296 64.3857C200.154 65.6632 200.176 66.9674 200.395 68.2402C200.641 69.6385 201.119 71.0305 201.963 72.1826C202.676 73.1482 203.552 73.6953 203.925 74.8694C204.841 77.7176 204.558 80.7241 204.232 83.6711Z" fill="black"/>
<path d="M177.779 109.551C177.539 109.551 177.355 109.513 177.245 109.43C177.08 109.305 176.98 109.065 177.008 108.86L179.098 93.7268C179.124 93.5402 179.239 93.3772 179.408 93.291C179.493 93.2471 187.915 88.8987 186.758 83.2728C186.526 82.1379 186.032 81.3808 185.294 81.0234C184.028 80.4089 182.313 81.0312 181.72 81.2836C181.33 82.395 180.276 84.0205 178.521 83.602C176.604 83.1537 177.069 78.8194 177.765 74.0322C177.839 73.5227 177.906 73.0618 177.944 72.7405L177.423 72.4082C172.39 72.5916 167.258 70.3469 163.656 66.3779C161.033 63.4873 157.055 62.0844 153.272 62.7145C148.943 63.4371 144.576 62.4276 141.292 59.9478C135.739 55.7593 133.658 47.5234 136.553 41.1984C137.562 38.9819 139.1 37.0413 140.997 35.5866C146.411 31.453 154.757 31.9734 159.604 36.7466C159.859 36.999 160.108 37.2623 160.359 37.5272C161.286 38.5054 162.16 39.4302 163.312 39.75C164.645 40.1168 166.112 39.587 167.534 39.0728L167.658 39.0289C172.889 37.1291 177.557 36.2387 181.932 36.3077C187.183 36.3923 192.094 37.9677 195.759 40.7454C199.938 43.9118 202.49 48.6599 202.589 53.4472C202.636 55.7248 202.144 57.9586 201.667 60.1186C201.354 61.5388 201.029 63.0076 200.869 64.456C200.728 65.7242 200.76 66.9672 200.963 68.1492C201.225 69.6352 201.719 70.8814 202.429 71.8486C202.648 72.1464 202.898 72.4129 203.137 72.67C203.655 73.2249 204.191 73.8002 204.476 74.7015C205.465 77.777 205.1 81.083 204.807 83.7399C203.236 97.9544 189.838 105.156 184.151 107.593C184.097 107.61 179.511 109.551 177.779 109.551ZM180.198 94.1751L178.239 108.369C179.955 108.051 185.22 106.356 190.564 102.85C195.958 99.3104 202.609 93.0982 203.658 83.6083C204.004 80.481 204.221 77.6767 203.376 75.0479C203.167 74.3911 202.761 73.9554 202.291 73.4522C202.029 73.17 201.758 72.88 201.498 72.5273C200.681 71.4144 200.12 70.0067 199.825 68.3435C199.603 67.0519 199.568 65.7007 199.722 64.3244C199.888 62.8164 200.219 61.3162 200.538 59.8663C201.021 57.6764 201.479 55.6057 201.434 53.4676C201.343 49.0298 198.96 44.6156 195.06 41.6608C191.589 39.0305 186.92 37.5366 181.911 37.4567C177.679 37.3893 173.146 38.2561 168.048 40.109L167.924 40.1544C166.408 40.7015 164.69 41.3238 163.005 40.8583C161.543 40.4538 160.516 39.3675 159.522 38.3173C159.281 38.0618 159.041 37.8078 158.795 37.5664C154.341 33.1804 146.671 32.7039 141.698 36.5021C139.95 37.8423 138.533 39.6324 137.602 41.6781C134.921 47.5313 136.848 55.1527 141.986 59.0292C145.019 61.3194 149.064 62.2489 153.083 61.5796C157.248 60.8852 161.626 62.4276 164.51 65.605C167.927 69.3703 172.801 71.4818 177.552 71.2513C177.671 71.2466 177.789 71.2764 177.891 71.3407L178.861 71.9599C179.035 72.0712 179.137 72.2671 179.126 72.474C179.11 72.7954 179.024 73.3848 178.906 74.1999C177.889 81.1927 178.395 82.3903 178.787 82.4828C180.087 82.7932 180.689 80.7318 180.695 80.7115C180.739 80.5563 180.845 80.4262 180.99 80.3525C181.099 80.2961 183.728 78.9887 185.794 79.9857C186.876 80.5077 187.581 81.536 187.89 83.0424C189.108 88.9755 181.748 93.3302 180.198 94.1751Z" fill="black"/>
<path d="M142.574 196.263C142.574 196.263 132.414 186.616 128.005 188.191C123.595 189.767 129.618 197.431 129.618 197.431" fill="white"/>
<path d="M129.619 198.009C129.448 198.009 129.279 197.934 129.166 197.788C128.746 197.254 125.092 192.489 125.945 189.534C126.2 188.647 126.846 187.994 127.812 187.65C132.42 186.002 141.906 194.832 142.972 195.845C143.202 196.064 143.211 196.429 142.992 196.66C142.773 196.89 142.407 196.9 142.177 196.68C139.423 194.066 131.543 187.54 128.199 188.734C127.58 188.955 127.204 189.321 127.052 189.852C126.467 191.877 129.033 195.752 130.072 197.075C130.268 197.326 130.224 197.688 129.975 197.884C129.87 197.969 129.745 198.009 129.619 198.009Z" fill="black"/>
<path d="M99.2146 227.271L122.587 226.882C126.23 226.821 129.134 223.819 129.073 220.174L128.383 178.804C128.322 175.161 125.32 172.256 121.676 172.317L98.3038 172.706C94.6609 172.767 91.7562 175.769 91.8174 179.414L92.5071 220.784C92.5682 224.426 95.5701 227.33 99.2146 227.271Z" fill="white"/>
<path d="M99.1044 227.847C95.2028 227.847 91.9972 224.707 91.9329 220.791L91.2432 179.421C91.1774 175.466 94.3422 172.194 98.2971 172.128L121.669 171.74C125.624 171.661 128.896 174.839 128.963 178.794L129.653 220.164C129.684 222.08 128.969 223.895 127.637 225.271C126.304 226.649 124.516 227.425 122.599 227.456L99.2267 227.845C99.1844 227.847 99.1436 227.847 99.1044 227.847ZM121.791 172.89C121.757 172.89 121.724 172.89 121.69 172.892L98.3175 173.281C94.9975 173.335 92.342 176.082 92.3969 179.402L93.0866 220.772C93.1415 224.092 95.9113 226.746 99.2079 226.693L122.58 226.304C124.188 226.278 125.69 225.626 126.808 224.47C127.925 223.313 128.527 221.791 128.501 220.183L127.811 178.812C127.756 175.527 125.064 172.89 121.791 172.89Z" fill="black"/>
<path d="M129.618 197.431C129.618 197.431 108.657 190.892 106.843 193.818C105.029 196.746 116.223 200.272 116.223 200.272C116.223 200.272 106.23 199.866 104.437 201.62C102.644 203.374 104.456 205.594 106.462 206.048C106.462 206.048 102.1 208.975 106.721 211.531C106.721 211.531 103.957 213.797 108.277 215.816C112.596 217.835 122.224 219.104 125.541 219.093C133.311 219.065 140.644 216.596 140.644 216.596C143.505 211.472 146.855 201.921 142.572 196.264" fill="white"/>
<path d="M125.5 219.669C122.307 219.669 112.498 218.425 108.035 216.338C106.353 215.552 105.43 214.6 105.293 213.507C105.198 212.741 105.516 212.095 105.831 211.664C104.674 210.887 104.069 209.99 104.025 208.991C103.976 207.841 104.712 206.864 105.331 206.251C104.309 205.743 103.501 204.872 103.23 203.914C102.956 202.945 103.243 201.984 104.036 201.209C105.285 199.987 109.653 199.697 112.831 199.655C110.2 198.588 106.85 196.924 106.196 195.163C105.984 194.594 106.039 194.023 106.354 193.513C108.257 190.446 124.773 195.315 129.791 196.881C130.095 196.976 130.264 197.299 130.169 197.603C130.073 197.907 129.748 198.077 129.446 197.981C119.57 194.899 108.309 192.548 107.333 194.122C107.204 194.329 107.187 194.525 107.275 194.761C107.913 196.481 113.208 198.716 116.396 199.721C116.672 199.807 116.84 200.085 116.791 200.37C116.741 200.655 116.484 200.859 116.2 200.846C112.432 200.693 106.017 200.881 104.84 202.03C104.348 202.511 104.179 203.038 104.337 203.597C104.575 204.436 105.542 205.247 106.59 205.483C106.814 205.533 106.986 205.714 107.028 205.939C107.071 206.165 106.975 206.396 106.784 206.524C106.32 206.838 105.127 207.883 105.176 208.941C105.209 209.672 105.823 210.374 107 211.024C107.168 211.117 107.278 211.286 107.295 211.476C107.312 211.666 107.234 211.852 107.086 211.974C107.082 211.979 106.337 212.612 106.436 213.366C106.522 214.028 107.243 214.694 108.521 215.291C112.839 217.31 122.381 218.514 125.496 218.514C125.51 218.514 125.524 218.514 125.538 218.514C132.399 218.489 139.002 216.509 140.249 216.114C143.5 210.197 145.905 201.619 142.112 196.608C141.919 196.354 141.969 195.993 142.223 195.801C142.477 195.608 142.837 195.658 143.03 195.912C147.201 201.422 144.623 210.647 141.146 216.873C141.075 216.998 140.963 217.092 140.826 217.138C140.753 217.163 133.315 219.638 125.541 219.666C125.53 219.669 125.514 219.669 125.5 219.669Z" fill="black"/>
<path d="M115.893 207.045C115.884 207.045 115.876 207.045 115.866 207.045L106.437 206.625C106.119 206.611 105.873 206.341 105.887 206.023C105.901 205.705 106.182 205.462 106.489 205.473L115.918 205.893C116.236 205.907 116.482 206.177 116.468 206.495C116.454 206.804 116.2 207.045 115.893 207.045Z" fill="black"/>
<path d="M116.214 212.278C116.211 212.278 116.206 212.278 116.203 212.278L106.714 212.105C106.396 212.099 106.142 211.837 106.149 211.519C106.155 211.204 106.412 210.953 106.725 210.953C106.729 210.953 106.733 210.953 106.736 210.953L116.225 211.126C116.543 211.132 116.797 211.394 116.791 211.712C116.783 212.027 116.526 212.278 116.214 212.278Z" fill="black"/>
<path d="M151.641 222.271C151.599 222.271 151.556 222.267 151.515 222.257L141.411 219.995C136.919 219.265 135.726 212.247 136.538 205.608C137.265 199.664 139.643 193.809 143.33 194.128C143.35 194.129 143.371 194.132 143.391 194.137L156.188 196.651C156.497 196.713 156.701 197.01 156.644 197.319L152.208 221.798C152.18 221.953 152.091 222.089 151.959 222.176C151.865 222.238 151.754 222.271 151.641 222.271ZM143.068 195.269C140.717 195.269 138.42 199.707 137.68 205.748C136.936 211.836 138.046 218.294 141.609 218.859C141.621 218.86 141.632 218.863 141.645 218.865L151.18 221L155.408 197.67L143.2 195.272C143.157 195.27 143.112 195.269 143.068 195.269Z" fill="black"/>
<path d="M189.037 128.264C195.789 130.334 208.82 134.854 215.068 145.833C221.565 157.251 238.758 212.127 223.459 223.857C211.223 233.239 148.875 222.282 148.875 222.282C139.276 217.259 142.923 192.381 154.346 194.782L199.51 196.698C199.51 196.698 188.141 164.038 188.882 155.592" fill="white"/>
<path d="M201.813 228.245C179.828 228.245 150.541 223.162 148.774 222.851C148.716 222.841 148.659 222.822 148.606 222.795C142.667 219.687 141.488 209.273 144.145 201.871C146.191 196.175 150.023 193.314 154.414 194.211L198.686 196.089C196.907 190.907 187.618 163.374 188.306 155.544C188.334 155.228 188.616 154.994 188.93 155.021C189.246 155.049 189.481 155.328 189.453 155.645C188.731 163.871 199.938 196.184 200.051 196.51C200.114 196.691 200.083 196.89 199.97 197.043C199.855 197.197 199.672 197.286 199.482 197.275L154.318 195.36C154.287 195.358 154.256 195.355 154.224 195.347C148.758 194.198 146.114 199.798 145.23 202.259C142.745 209.181 143.715 218.845 149.062 221.731C151.758 222.196 211.421 232.36 223.107 223.402C237.931 212.035 220.991 157.411 214.567 146.119C208.745 135.887 197.112 131.343 188.868 128.815C188.564 128.721 188.394 128.399 188.486 128.095C188.58 127.791 188.901 127.62 189.205 127.713C197.637 130.297 209.543 134.959 215.568 145.548C222.315 157.403 239.414 212.352 223.809 224.316C220.011 227.228 211.64 228.245 201.813 228.245Z" fill="black"/>
<path d="M173.561 68.3919C171.044 68.3919 168.518 67.362 166.791 65.5201C166.209 64.901 165.709 64.1971 165.225 63.5168C164.306 62.2252 163.438 61.0056 162.123 60.4444C160.961 59.9475 159.642 60.0494 158.243 60.1576C157.95 60.1795 157.657 60.203 157.365 60.2187C152.782 60.4821 148.18 59.1935 144.4 56.5914C142.825 55.5067 141.773 54.4376 141.093 53.2275C140.204 51.6458 140.046 49.84 140.67 48.3947C140.796 48.1032 141.137 47.9684 141.427 48.0938C141.72 48.2207 141.853 48.5593 141.728 48.8509C141.245 49.967 141.384 51.3919 142.098 52.66C142.689 53.7118 143.629 54.6586 145.054 55.6399C148.623 58.0978 152.97 59.3127 157.3 59.0666C157.583 59.0509 157.869 59.0289 158.154 59.007C159.629 58.8926 161.154 58.7766 162.576 59.3832C164.19 60.0729 165.194 61.4837 166.164 62.8475C166.626 63.4964 167.103 64.1673 167.631 64.7301C169.639 66.8698 172.883 67.757 175.701 66.9388C176.005 66.8494 176.326 67.025 176.416 67.3306C176.505 67.6363 176.33 67.9561 176.022 68.0454C175.221 68.2806 174.392 68.3919 173.561 68.3919Z" fill="white"/>
<path d="M163.833 43.3534C162.301 43.3534 160.773 43.0007 159.431 42.2796C158.71 41.8908 158.05 41.4143 157.412 40.9535C156.904 40.5867 156.423 40.2387 155.912 39.9314C154.995 39.3781 153.634 38.7918 152.36 39.1382C152.054 39.2213 151.736 39.0395 151.653 38.7322C151.57 38.425 151.752 38.1084 152.059 38.0253C153.377 37.6679 154.915 37.9861 156.508 38.9439C157.061 39.2762 157.583 39.654 158.088 40.0192C158.724 40.4785 159.324 40.9127 159.978 41.2638C162.745 42.7514 166.419 42.4552 168.912 40.5412C169.164 40.3484 169.526 40.3954 169.719 40.6478C169.913 40.9002 169.865 41.2623 169.612 41.4566C167.98 42.7075 165.903 43.3518 163.833 43.3534Z" fill="white"/>
<path d="M185.777 103.409C185.54 103.409 185.317 103.262 185.233 103.025C185.126 102.726 185.283 102.395 185.584 102.29C193.845 99.3636 200.283 91.9178 201.987 83.3198C202.048 83.0079 202.352 82.8041 202.664 82.8668C202.976 82.9279 203.179 83.232 203.117 83.544C201.336 92.5323 194.603 100.317 185.968 103.377C185.905 103.398 185.839 103.409 185.777 103.409Z" fill="white"/>
<path d="M198.473 68.099C198.301 68.099 198.132 68.0222 198.017 67.8764C196.965 66.5221 196.345 64.7508 196.174 62.6111C196.149 62.2944 196.385 62.0154 196.702 61.9903C197.02 61.9637 197.298 62.2019 197.323 62.5186C197.478 64.4576 198.003 65.9797 198.928 67.1695C199.124 67.4203 199.078 67.7824 198.826 67.9783C198.721 68.0598 198.597 68.099 198.473 68.099Z" fill="white"/>
<path d="M197.057 57.5588C197.034 57.5588 197.01 57.5573 196.986 57.5541C196.671 57.5149 196.446 57.2281 196.485 56.913C196.715 55.021 196.977 52.8766 196.66 50.8482C196.196 47.8698 194.424 45.089 191.919 43.4118C189.414 41.7329 186.169 41.1514 183.238 41.8536C182.93 41.9289 182.617 41.7376 182.543 41.4272C182.469 41.1169 182.661 40.8065 182.97 40.7328C186.208 39.9569 189.795 40.5996 192.561 42.454C195.328 44.3084 197.287 47.3808 197.8 50.671C198.142 52.8593 197.869 55.0868 197.631 57.0541C197.593 57.3441 197.344 57.5588 197.057 57.5588Z" fill="white"/>
<path d="M75.892 15.8997L8.30859 44.6289L27.6742 90.1851L95.2576 61.4559L75.892 15.8997Z" fill="#E73232"/>
<path d="M19.9527 87.0675C19.879 87.0675 19.8069 87.0534 19.7364 87.0252C19.5953 86.9672 19.4808 86.8575 19.4213 86.7164L0.0574222 41.1605C-0.0664136 40.8673 0.0699645 40.5288 0.363095 40.4049L67.9461 11.6766C68.2393 11.5527 68.5778 11.6891 68.7017 11.9822L88.0671 57.5397C88.1267 57.6808 88.1282 57.8391 88.0718 57.9802C88.0154 58.1213 87.9041 58.2357 87.763 58.2953L20.1784 87.0221C20.1063 87.0534 20.0295 87.0675 19.9527 87.0675ZM1.34437 41.2404L20.2583 85.7367L86.7817 57.4598L67.8662 12.9619L1.34437 41.2404Z" fill="black"/>
<path d="M19.9518 87.0688C19.7887 87.0688 19.6304 86.9999 19.5191 86.8729C19.3545 86.6863 19.3279 86.4152 19.4549 86.202L37.2653 55.7211C37.4095 55.4734 37.7152 55.37 37.9801 55.4781L40.8016 56.6224C42.8504 57.4548 45.0999 57.4376 47.1345 56.5723C49.1692 55.707 50.7414 54.1003 51.5644 52.0483L52.6977 49.2205C52.8043 48.9556 53.0896 48.8082 53.3686 48.8756L87.6759 57.2024C87.9173 57.2604 88.0944 57.4673 88.1148 57.715C88.1352 57.9627 87.9941 58.1947 87.7652 58.2934L20.1775 87.0234C20.1054 87.0547 20.0286 87.0688 19.9518 87.0688ZM38.0083 56.7337L21.3265 85.2818L85.7133 57.9125L53.5818 50.1124L52.6335 52.4747C51.6961 54.8135 49.9028 56.646 47.5844 57.6304C45.266 58.6164 42.7015 58.6367 40.3674 57.6884L38.0083 56.7337Z" fill="black"/>
<path d="M43.9092 58.3855C42.7116 58.3855 41.5124 58.1535 40.3681 57.6895L0.370696 41.467C0.154375 41.3792 0.0132995 41.1707 0.011732 40.9372C0.0101644 40.7036 0.148107 40.4936 0.36286 40.4026L67.9506 11.6727C68.1638 11.5818 68.413 11.6288 68.5792 11.7918C68.7453 11.9549 68.7971 12.2025 68.7109 12.4189L52.6341 52.4759C51.6968 54.8146 49.9035 56.6471 47.5851 57.6315C46.4032 58.1347 45.157 58.3855 43.9092 58.3855ZM2.09029 40.9215L40.8023 56.622C42.8511 57.4544 45.1005 57.4371 47.1352 56.5718C49.1699 55.7066 50.7421 54.0998 51.5651 52.0479L67.1229 13.2794L2.09029 40.9215Z" fill="black"/>
<path d="M65.0213 34.3864C74.3141 34.3864 81.8473 26.8531 81.8473 17.5604C81.8473 8.26763 74.3141 0.734375 65.0213 0.734375C55.7286 0.734375 48.1953 8.26763 48.1953 17.5604C48.1953 26.8531 55.7286 34.3864 65.0213 34.3864Z" fill="black"/>
<path d="M65.0594 34.9665C64.2537 34.9665 63.4448 34.9116 62.6329 34.7987C58.029 34.1608 53.9487 31.7671 51.1443 28.0599C48.34 24.3526 47.1471 19.7754 47.7851 15.17C48.4231 10.5661 50.8167 6.48579 54.524 3.68145C58.2328 0.87712 62.81 -0.315779 67.4139 0.322211C72.0177 0.960201 76.098 3.35384 78.9024 7.06108C81.7067 10.7683 82.8996 15.3455 82.2616 19.9494C81.6236 24.5533 79.23 28.6336 75.5228 31.4379C72.4692 33.7501 68.8231 34.9665 65.0594 34.9665ZM64.9889 1.30819C61.4745 1.30819 58.0713 2.44466 55.22 4.6016C51.7588 7.2194 49.5235 11.0301 48.9278 15.3299C47.6973 24.2053 53.9158 32.4271 62.7912 33.6576C67.091 34.2532 71.3656 33.1403 74.8268 30.5209C78.2879 27.9031 80.5232 24.0924 81.1189 19.7927C81.7146 15.4929 80.6016 11.2198 77.9822 7.75706C75.3644 4.29593 71.5537 2.06061 67.254 1.46495C66.4984 1.35992 65.7413 1.30819 64.9889 1.30819Z" fill="black"/>
<path d="M72.2331 17.7138C72.0669 18.9176 71.7675 19.9726 71.338 20.8802C70.9069 21.7878 70.3504 22.5308 69.6686 23.1108C68.9867 23.6908 68.1857 24.0937 67.2671 24.3194C66.3485 24.5467 65.3171 24.5796 64.1743 24.4213C63.0457 24.2645 62.0817 23.9808 61.2822 23.5685C60.4828 23.1563 59.8448 22.6092 59.3682 21.9273C58.8917 21.2439 58.5782 20.4162 58.4277 19.4428C58.2772 18.4693 58.2913 17.3438 58.4669 16.0663C58.6299 14.8937 58.9246 13.8576 59.3541 12.9625C59.7836 12.0659 60.3385 11.3307 61.0204 10.7539C61.7023 10.1786 62.5018 9.77572 63.4219 9.54373C64.3405 9.3133 65.3766 9.27881 66.5272 9.43713C67.626 9.58918 68.576 9.86977 69.3754 10.2773C70.1749 10.6849 70.816 11.2304 71.2957 11.9138C71.7753 12.5973 72.0951 13.4203 72.255 14.3827C72.4149 15.3499 72.4071 16.4582 72.2331 17.7138ZM69.1184 17.441C69.2234 16.6792 69.2594 15.9769 69.2265 15.3374C69.1936 14.6978 69.0635 14.1335 68.8378 13.6491C68.612 13.1647 68.2766 12.7682 67.8314 12.4594C67.3862 12.1505 66.8062 11.9452 66.0883 11.8464C65.3625 11.7461 64.7386 11.7978 64.2151 12.0032C63.6915 12.2085 63.2479 12.5189 62.8858 12.9328C62.5237 13.3466 62.2384 13.8498 62.0315 14.4423C61.823 15.0348 61.6725 15.6712 61.5785 16.35C61.4687 17.1416 61.4296 17.8627 61.4625 18.5101C61.4938 19.1575 61.6208 19.7265 61.8434 20.214C62.0644 20.7015 62.3983 21.0965 62.845 21.3975C63.2902 21.6985 63.8749 21.9007 64.6007 22.001C65.3265 22.1013 65.9488 22.0511 66.4723 21.8489C66.9943 21.6467 67.4379 21.3363 67.8016 20.9131C68.1653 20.4914 68.4506 19.9804 68.6591 19.3816C68.8691 18.7828 69.0212 18.137 69.1184 17.441Z" fill="white"/>
<path d="M9.428 253.332C7.73975 253.332 6.08756 252.741 4.71596 251.599C2.5794 249.818 1.64044 247.128 2.20319 244.404L12.6791 193.761C13.1823 191.331 14.8548 189.323 17.156 188.392C19.4556 187.46 22.0546 187.737 24.1065 189.132L66.8722 218.207C69.1733 219.771 70.3709 222.356 70.0762 225.123C69.7815 227.89 68.0666 230.164 65.488 231.208L12.2464 252.774C11.3216 253.149 10.3685 253.332 9.428 253.332ZM19.9399 189C19.1452 189 18.3473 189.152 17.5871 189.46C15.6449 190.247 14.2309 191.941 13.8077 193.995L3.33182 244.637C2.85529 246.938 3.64847 249.21 5.45271 250.713C7.25695 252.218 9.63335 252.589 11.8122 251.707L65.0538 230.141C67.2311 229.258 68.6795 227.338 68.9288 225.001C69.178 222.665 68.1654 220.481 66.2232 219.16L23.4575 190.085C22.4025 189.367 21.1767 189 19.9399 189Z" fill="black"/>
<path d="M31.4078 208.163C31.4501 208.292 31.4846 208.427 31.5144 208.558L34.637 222.873C34.9254 224.187 34.1698 225.503 32.8876 225.92C31.61 226.334 30.2243 225.713 29.6835 224.481L23.8084 211.06C22.8428 208.855 23.9902 206.301 26.2804 205.558C28.4373 204.857 30.7244 206.056 31.4078 208.163Z" fill="black"/>
<path d="M34.5355 234.024C36.2099 234.024 37.5672 232.667 37.5672 230.993C37.5672 229.318 36.2099 227.961 34.5355 227.961C32.8612 227.961 31.5039 229.318 31.5039 230.993C31.5039 232.667 32.8612 234.024 34.5355 234.024Z" fill="black"/>
<path d="M277.152 108.495H215.051L220.308 71.1816H282.411L277.152 108.495Z" fill="white"/>
<path d="M277.153 109.071H215.05C214.884 109.071 214.724 108.999 214.614 108.874C214.504 108.748 214.456 108.581 214.478 108.415L219.737 71.1008C219.778 70.8171 220.021 70.6055 220.307 70.6055H282.41C282.577 70.6055 282.736 70.6776 282.846 70.803C282.956 70.9284 283.005 71.0961 282.983 71.2623L277.723 108.576C277.684 108.86 277.441 109.071 277.153 109.071ZM215.715 107.918H276.653L281.749 71.7576H220.811L215.715 107.918Z" fill="black"/>
<path d="M220.4 118.762C220.281 118.762 220.164 118.726 220.065 118.654C219.891 118.529 219.8 118.317 219.83 118.106L221.493 108.873C221.537 108.558 221.832 108.339 222.143 108.383C222.459 108.426 222.678 108.718 222.634 109.033L221.125 117.174L238.288 108.534C238.573 108.392 238.918 108.506 239.062 108.79C239.205 109.073 239.09 109.42 238.806 109.564L220.661 118.7C220.578 118.742 220.488 118.762 220.4 118.762Z" fill="black"/>
<path d="M264.9 84.0209H228.62C228.302 84.0209 228.043 83.7623 228.043 83.444C228.043 83.1258 228.302 82.8672 228.62 82.8672H264.9C265.219 82.8672 265.477 83.1258 265.477 83.444C265.476 83.7638 265.219 84.0209 264.9 84.0209ZM247.333 91.1736H228.273C227.955 91.1736 227.696 90.915 227.696 90.5967C227.696 90.2785 227.955 90.0199 228.273 90.0199H247.333C247.651 90.0199 247.91 90.2785 247.91 90.5967C247.91 90.915 247.651 91.1736 247.333 91.1736ZM264.556 91.1736H255.367C255.048 91.1736 254.79 90.915 254.79 90.5967C254.79 90.2785 255.048 90.0199 255.367 90.0199H264.556C264.874 90.0199 265.132 90.2785 265.132 90.5967C265.131 90.915 264.874 91.1736 264.556 91.1736ZM242.525 98.3247H227.928C227.61 98.3247 227.352 98.0661 227.352 97.7479C227.352 97.4297 227.61 97.171 227.928 97.171H242.525C242.844 97.171 243.102 97.4297 243.102 97.7479C243.102 98.0661 242.844 98.3247 242.525 98.3247Z" fill="black"/>
<path d="M254.674 98.3256H247.842C247.524 98.3256 247.266 98.0669 247.266 97.7487C247.266 97.4305 247.524 97.1719 247.842 97.1719H254.674C254.992 97.1719 255.251 97.4305 255.251 97.7487C255.251 98.0669 254.992 98.3256 254.674 98.3256Z" fill="black"/>
</g>
<defs>
<clipPath id="clip0_685_534">
<rect width="283" height="313.817" fill="white"/>
</clipPath>
</defs>
</svg>
