<svg width="24" height="24" viewBox="0 0 24 24" fill="none" xmlns="http://www.w3.org/2000/svg">
<path d="M11.8602 11.5609C13.4484 11.5609 14.8237 10.9912 15.9475 9.86729C17.0712 8.74361 17.6408 7.36867 17.6408 5.78027C17.6408 4.19234 17.0712 2.81727 15.9473 1.69317C14.8234 0.569623 13.4482 0 11.8602 0C10.2718 0 8.89679 0.569623 7.77311 1.69335C6.64942 2.81708 6.07957 4.1922 6.07957 5.78027C6.07957 7.36867 6.64938 8.74379 7.77329 9.86752C8.89721 10.9911 10.2723 11.5609 11.8602 11.5609ZM21.9747 18.4548C21.9423 17.9871 21.8768 17.4769 21.7802 16.9383C21.6828 16.3955 21.5574 15.8825 21.4073 15.4136C21.2522 14.9289 21.0413 14.4503 20.7805 13.9916C20.5099 13.5155 20.192 13.1009 19.8353 12.7598C19.4623 12.403 19.0057 12.1161 18.4776 11.9067C17.9514 11.6986 17.3681 11.5931 16.7443 11.5931C16.4993 11.5931 16.2624 11.6936 15.8048 11.9916C15.4796 12.2034 15.1533 12.4137 14.8261 12.6225C14.5117 12.8228 14.0858 13.0105 13.5598 13.1804C13.0465 13.3465 12.5254 13.4308 12.0111 13.4308C11.4967 13.4308 10.9758 13.3465 10.462 13.1804C9.93652 13.0107 9.51062 12.823 9.19655 12.6227C8.83234 12.39 8.50281 12.1776 8.21696 11.9913C7.75993 11.6934 7.5228 11.5929 7.27783 11.5929C6.65378 11.5929 6.0708 11.6985 5.54472 11.907C5.01701 12.1159 4.56017 12.4028 4.18681 12.76C3.83033 13.1013 3.51228 13.5157 3.242 13.9916C2.98147 14.4502 2.77053 14.9287 2.61524 15.4138C2.46524 15.8827 2.33985 16.3955 2.24244 16.9383C2.14593 17.4762 2.08039 17.9866 2.04796 18.4553C2.01569 18.927 1.9997 19.3997 2 19.8725C2 21.1254 2.39825 22.1395 3.18359 22.8875C3.95923 23.6257 4.98551 24.0001 6.23355 24.0001H17.7897C19.0377 24.0001 20.0636 23.6258 20.8395 22.8876C21.625 22.1401 22.0232 21.1257 22.0232 19.8723C22.0231 19.3888 22.0068 18.9118 21.9747 18.4548Z" fill="#E73232"/>
</svg>
