<svg width="1094" height="265" viewBox="0 0 1094 265" fill="none" xmlns="http://www.w3.org/2000/svg">
<g clip-path="url(#clip0_5461_6703)">
<path fill-rule="evenodd" clip-rule="evenodd" d="M32.9276 80.2495C31.4892 79.5099 29.7485 80.3937 29.4969 81.9914L14.2764 178.642C14.0495 180.083 15.1631 181.385 16.6214 181.385H38.9963V195.629H16.6214C6.41285 195.629 -1.38205 186.51 0.206023 176.426L15.4266 79.7756C17.1878 68.5918 29.3728 62.405 39.4413 67.5824L101.285 99.3836C101.966 99.734 102.775 99.734 103.456 99.3836L165.3 67.5824C175.368 62.405 187.553 68.5917 189.315 79.7756L204.535 176.426C206.123 186.51 198.328 195.629 188.12 195.629H164.909V181.385H188.12C189.578 181.385 190.692 180.083 190.465 178.642L175.244 81.9914C174.993 80.3937 173.252 79.5099 171.814 80.2495L109.97 112.051C105.201 114.503 99.5407 114.503 94.7713 112.051L32.9276 80.2495Z" fill="#E73232"/>
<path fill-rule="evenodd" clip-rule="evenodd" d="M102.371 70.761C112.859 70.761 121.362 62.2581 121.362 51.7693C121.362 41.2805 112.859 32.7777 102.371 32.7777C91.8819 32.7777 83.379 41.2805 83.379 51.7693C83.379 62.2581 91.8819 70.761 102.371 70.761ZM102.371 85.0047C120.726 85.0047 135.606 70.1247 135.606 51.7693C135.606 33.4139 120.726 18.5339 102.371 18.5339C84.0153 18.5339 69.1353 33.4139 69.1353 51.7693C69.1353 70.1247 84.0153 85.0047 102.371 85.0047Z" fill="#E73232"/>
<path fill-rule="evenodd" clip-rule="evenodd" d="M146.914 214.15H57.8276C55.1969 214.15 53.0677 212.011 53.0797 209.381L53.3319 154.305C53.3439 151.691 55.4661 149.579 58.0798 149.579H146.662C149.276 149.579 151.398 151.691 151.41 154.305L151.662 209.381C151.674 212.011 149.545 214.15 146.914 214.15ZM57.8276 228.394C47.3048 228.394 38.788 219.838 38.8361 209.315L39.0883 154.24C39.1362 143.785 47.6249 135.335 58.0798 135.335H146.662C157.117 135.335 165.605 143.785 165.653 154.24L165.906 209.315C165.954 219.838 157.437 228.394 146.914 228.394H57.8276Z" fill="#0A0000"/>
<path fill-rule="evenodd" clip-rule="evenodd" d="M50.2728 246.434C47.6058 246.434 45.4749 243.964 45.5836 240.999C45.6862 238.199 47.7552 235.989 50.2728 235.989H154.836C157.354 235.989 159.423 238.199 159.526 240.999C159.634 243.964 157.503 246.434 154.836 246.434H50.2728Z" fill="#0A0000"/>
<path d="M262.839 108V52.5993C262.839 49.5291 263.38 47.6327 264.464 46.9103C265.548 46.0976 267.805 45.6912 271.237 45.6912H288.168L304.017 81.0447L304.287 82.3992L304.558 82.2638L304.829 80.9092L320.136 45.6912H338.151C341.402 45.6912 343.479 46.1427 344.382 47.0457C345.375 47.9488 345.872 49.8 345.872 52.5993V101.092C345.872 103.349 345.646 104.975 345.195 105.968C344.743 106.871 343.93 107.458 342.756 107.729C341.582 107.91 339.867 108 337.609 108H323.657V69.5311L322.709 73.3238L307.674 108H294.264L279.364 73.7302L278.551 69.9374V108H262.839ZM388.065 108.677C381.743 108.677 376.641 108.452 372.758 108C368.875 107.639 365.85 106.871 363.683 105.697C361.606 104.523 360.206 102.853 359.484 100.685C358.761 98.5182 358.4 95.7188 358.4 92.2873C358.4 87.6819 358.852 84.2053 359.755 81.8574C360.658 79.4192 362.238 77.7486 364.496 76.8456C366.753 75.9426 369.778 75.4911 373.571 75.4911C375.829 75.4911 378.402 75.5362 381.292 75.6265C384.272 75.6265 387.162 75.6717 389.961 75.762C392.851 75.8523 395.334 76.0329 397.411 76.3038C399.578 76.4844 401.068 76.665 401.881 76.8456C401.881 74.0462 401.61 71.8338 401.068 70.2084C400.617 68.5829 399.849 67.3638 398.766 66.5511C397.682 65.6481 396.237 65.0611 394.431 64.7902C392.625 64.5193 390.413 64.3838 387.794 64.3838C384.633 64.3838 381.473 64.429 378.312 64.5193C375.242 64.6096 372.217 64.7902 369.237 65.0611C366.347 65.332 363.683 65.6481 361.245 66.0093V62.2166C361.245 59.7784 361.787 57.9724 362.87 56.7984C363.954 55.6245 365.444 54.8569 367.34 54.4957C369.417 54.0442 372.487 53.7281 376.551 53.5475C380.705 53.3669 385.175 53.2766 389.961 53.2766C396.011 53.2766 401.068 53.5927 405.132 54.2248C409.286 54.8569 412.537 55.9857 414.885 57.6111C417.232 59.2366 418.903 61.6748 419.896 64.9257C420.89 68.0862 421.386 72.3305 421.386 77.6583V104.614C419.941 105.968 416.329 107.007 410.55 107.729C404.861 108.361 397.366 108.677 388.065 108.677ZM387.929 100.279C390.458 100.279 392.58 100.234 394.296 100.144C396.102 99.9631 397.637 99.7373 398.901 99.4664C400.165 99.1955 401.159 98.8794 401.881 98.5182V83.3474C400.888 83.0765 399.488 82.8507 397.682 82.6701C395.966 82.4895 394.205 82.3541 392.399 82.2638C390.593 82.1735 389.193 82.1283 388.2 82.1283C386.033 82.1283 384.272 82.3089 382.917 82.6701C381.563 83.0313 380.57 83.844 379.937 85.1083C379.396 86.3725 379.125 88.314 379.125 90.9328C379.125 93.1904 379.35 95.0416 379.802 96.4864C380.253 97.841 381.111 98.8343 382.376 99.4664C383.64 100.008 385.491 100.279 387.929 100.279ZM453.649 108.542C448.772 108.542 444.934 108.045 442.135 107.052C439.426 105.968 437.53 104.252 436.446 101.905C435.362 99.4664 434.821 96.1252 434.821 91.881V64.5193H428.996V53.9539H434.821V47.0457C434.821 44.7882 434.956 43.1176 435.227 42.0339C435.588 40.9503 436.265 40.273 437.259 40.0021C438.252 39.7312 439.832 39.5958 442 39.5958H455.003C455.003 39.957 455.003 40.4085 455.003 40.9503C455.003 41.4921 455.003 42.1694 455.003 42.9821V53.9539H468.142V64.5193H455.139V90.2555C455.139 93.8676 455.455 96.4864 456.087 98.1119C456.809 99.7373 458.66 100.55 461.64 100.55C462.453 100.55 463.492 100.46 464.756 100.279C466.11 100.099 467.059 99.9179 467.6 99.7373V107.187C466.968 107.278 465.388 107.548 462.86 108C460.421 108.361 457.351 108.542 453.649 108.542ZM508.26 108.813C500.133 108.813 493.586 108.135 488.619 106.781C483.743 105.336 480.176 102.717 477.918 98.9246C475.751 95.0416 474.667 89.4428 474.667 82.1283C474.667 74.1817 475.751 68.1314 477.918 63.9775C480.176 59.8236 483.743 56.979 488.619 55.4439C493.586 53.9087 500.133 53.1412 508.26 53.1412C510.608 53.1412 512.865 53.2766 515.033 53.5475C517.29 53.7281 519.999 54.0442 523.16 54.4957C524.966 54.6763 526.411 55.0827 527.494 55.7148C528.668 56.3469 529.526 57.3854 530.068 58.8302C530.61 60.2751 530.881 62.4423 530.881 65.332C529.887 64.9708 528.352 64.6547 526.275 64.3838C524.289 64.0226 522.121 63.7517 519.773 63.5711C517.426 63.3905 515.349 63.3002 513.543 63.3002C508.937 63.3002 505.28 63.842 502.571 64.9257C499.952 66.0093 498.056 67.8153 496.882 70.3438C495.798 72.8723 495.256 76.3489 495.256 80.7738C495.256 85.1083 495.798 88.5398 496.882 91.0683C498.056 93.5967 499.952 95.4028 502.571 96.4864C505.28 97.57 508.937 98.1119 513.543 98.1119C515.62 98.1119 517.787 98.0216 520.044 97.841C522.392 97.6604 524.514 97.4346 526.411 97.1637C528.397 96.8025 529.887 96.4413 530.881 96.0801V101.498C530.881 103.756 529.842 105.426 527.765 106.51C525.779 107.503 523.07 108.135 519.638 108.406C516.207 108.677 512.414 108.813 508.26 108.813ZM547.63 108C544.47 108 542.483 107.594 541.67 106.781C540.858 105.878 540.451 104.207 540.451 101.769V39.5958H560.634V55.3084C561.718 55.0375 562.982 54.8118 564.427 54.6312C565.962 54.4505 567.587 54.3151 569.303 54.2248C571.019 54.1345 572.644 54.0893 574.179 54.0893C580.32 54.0893 585.241 54.5409 588.944 55.4439C592.646 56.3469 595.446 57.7466 597.342 59.6429C599.238 61.5393 600.503 64.0226 601.135 67.0929C601.857 70.1632 602.218 73.9108 602.218 78.3356V99.4664C602.218 101.905 601.947 103.756 601.406 105.02C600.954 106.194 600.096 107.007 598.832 107.458C597.568 107.819 595.717 108 593.278 108H582.442V75.6265C582.442 72.195 582.036 69.6214 581.223 67.9056C580.41 66.0996 579.101 64.9257 577.295 64.3838C575.579 63.7517 573.276 63.4357 570.387 63.4357C569.393 63.4357 568.265 63.4808 567 63.5711C565.826 63.6614 564.652 63.842 563.479 64.1129C562.305 64.2935 561.356 64.5193 560.634 64.7902V108H547.63ZM613.337 76.8456C613.337 70.4341 613.969 65.1514 615.234 60.9975C616.588 56.8436 618.71 53.5927 621.6 51.2448C624.49 48.8969 628.192 47.2715 632.707 46.3685C637.313 45.4654 642.866 45.0139 649.368 45.0139C652.709 45.0139 655.915 45.1494 658.985 45.4203C662.146 45.6009 665.352 45.9621 668.602 46.5039C671.311 46.9554 673.027 47.5875 673.75 48.4003C674.562 49.1227 674.969 50.1612 674.969 51.5157V54.9021C673.253 54.0893 670.86 53.4121 667.79 52.8703C664.719 52.2381 661.559 51.7866 658.308 51.5157C655.057 51.2448 652.167 51.1094 649.639 51.1094C643.318 51.1094 638.261 51.8769 634.468 53.4121C630.766 54.8569 628.102 57.4305 626.476 61.1329C624.851 64.8353 624.038 70.0729 624.038 76.8456C624.038 83.6183 624.806 88.901 626.341 92.6937C627.876 96.3961 630.54 99.0149 634.333 100.55C638.216 102.085 643.543 102.853 650.316 102.853C652.754 102.853 655.509 102.717 658.579 102.446C661.649 102.175 664.629 101.769 667.519 101.227C670.408 100.595 672.892 99.9631 674.969 99.3309V102.446C674.969 103.62 674.562 104.659 673.75 105.562C672.937 106.375 671.131 106.962 668.332 107.323C665.171 107.955 662.01 108.361 658.85 108.542C655.689 108.813 652.438 108.948 649.097 108.948C642.415 108.948 636.771 108.497 632.165 107.594C627.56 106.6 623.857 104.975 621.058 102.717C618.349 100.369 616.362 97.1185 615.098 92.9646C613.924 88.8107 613.337 83.4377 613.337 76.8456ZM696.811 108H690.851C689.677 108 688.774 107.729 688.142 107.187C687.6 106.555 687.329 105.426 687.329 103.801V56.663C689.316 56.0308 692.025 55.3536 695.456 54.6312C698.978 53.9087 703.312 53.5475 708.46 53.5475C713.336 53.5475 717.174 53.9087 719.973 54.6312C722.863 55.2633 724.94 56.1663 726.204 57.3402C727.559 58.5142 728.417 59.959 728.778 61.6748C729.229 63.3002 729.455 65.1514 729.455 67.2284H720.38L720.244 65.332C720.154 63.2551 719.477 61.7651 718.212 60.862C716.948 59.8687 715.458 59.2817 713.742 59.1011C712.027 58.8302 710.311 58.6948 708.595 58.6948C705.976 58.6948 703.629 58.9205 701.552 59.372C699.565 59.8236 697.985 60.4105 696.811 61.1329V108ZM765.841 108.813C760.604 108.813 756.179 108.452 752.567 107.729C749.045 107.007 746.201 105.652 744.033 103.665C741.956 101.679 740.421 98.9246 739.428 95.4028C738.525 91.7907 738.073 87.1401 738.073 81.451C738.073 74.9492 738.886 69.6214 740.512 65.4675C742.137 61.3135 745.027 58.2433 749.181 56.2566C753.334 54.2699 759.159 53.2766 766.654 53.2766C772.433 53.2766 777.039 54.0442 780.47 55.5793C783.992 57.1145 786.521 59.4623 788.056 62.6229C789.681 65.7835 790.494 69.8923 790.494 74.9492V82.6701H752.296C752.296 81.5865 752.567 80.6835 753.109 79.961C753.651 79.1483 754.644 78.742 756.089 78.742H781.96L781.825 74.8138C781.735 69.215 780.516 65.1514 778.168 62.6229C775.91 60.0945 771.937 58.8302 766.248 58.8302C761.462 58.8302 757.714 59.5526 755.005 60.9975C752.296 62.4423 750.4 64.7902 749.316 68.0411C748.232 71.292 747.691 75.7168 747.691 81.3156C747.691 87.2755 748.278 91.8358 749.451 94.9964C750.716 98.0667 752.793 100.189 755.682 101.363C758.572 102.446 762.5 102.988 767.467 102.988C769.183 102.988 771.124 102.943 773.291 102.853C775.549 102.672 777.806 102.492 780.064 102.311C782.322 102.13 784.308 101.905 786.024 101.634C787.83 101.272 789.094 100.911 789.817 100.55V102.175C789.817 103.079 789.546 103.936 789.004 104.749C788.553 105.562 787.559 106.239 786.024 106.781C784.037 107.594 781.328 108.135 777.897 108.406C774.556 108.677 770.537 108.813 765.841 108.813ZM826.233 108.948C820.905 108.948 816.57 108.677 813.229 108.135C809.888 107.594 807.314 106.691 805.508 105.426C803.793 104.072 802.573 102.311 801.851 100.144C801.219 97.9764 800.903 95.3125 800.903 92.1519C800.903 87.5465 801.445 84.0247 802.528 81.5865C803.612 79.1483 805.508 77.4777 808.217 76.5747C810.926 75.6717 814.539 75.2201 819.054 75.2201C821.311 75.2201 823.749 75.3105 826.368 75.4911C829.077 75.5814 831.651 75.7168 834.089 75.8974C836.618 75.9877 838.785 76.1232 840.591 76.3038C842.487 76.4844 843.751 76.7101 844.384 76.9811C844.384 72.8271 844.022 69.5311 843.3 67.0929C842.577 64.6547 841.449 62.8487 839.914 61.6748C838.469 60.5008 836.618 59.7333 834.36 59.372C832.193 59.0108 829.664 58.8302 826.775 58.8302C823.795 58.8302 820.769 58.9657 817.699 59.2366C814.719 59.4172 811.965 59.7784 809.436 60.3202C806.908 60.7717 804.966 61.4039 803.612 62.2166V60.1848C803.612 58.2884 804.154 56.979 805.237 56.2566C806.411 55.4439 807.721 54.9021 809.166 54.6312C810.881 54.1796 813.365 53.8184 816.615 53.5475C819.957 53.2766 823.433 53.1863 827.045 53.2766C831.651 53.2766 835.579 53.5024 838.83 53.9539C842.171 54.4054 844.925 55.3987 847.093 56.9339C849.26 58.3787 850.885 60.5911 851.969 63.5711C853.053 66.5511 853.594 70.6147 853.594 75.762V103.665C853.053 105.472 850.66 106.826 846.415 107.729C842.171 108.542 835.444 108.948 826.233 108.948ZM826.233 104.343C830.387 104.343 833.683 104.207 836.121 103.936C838.649 103.665 840.546 103.304 841.81 102.853C843.164 102.401 844.022 101.814 844.384 101.092V80.9092C843.571 80.6383 842.036 80.3674 839.778 80.0965C837.611 79.8256 835.308 79.5998 832.87 79.4192C830.432 79.1483 828.355 79.0129 826.639 79.0129C822.756 79.0129 819.595 79.2386 817.157 79.6901C814.809 80.1416 813.094 81.2704 812.01 83.0765C811.017 84.8825 810.52 87.6819 810.52 91.4746C810.52 94.4546 810.881 96.8928 811.604 98.7891C812.326 100.685 813.771 102.085 815.938 102.988C818.196 103.891 821.627 104.343 826.233 104.343ZM882.229 108.406C879.159 108.406 876.766 108.045 875.05 107.323C873.334 106.51 872.07 105.155 871.257 103.259C870.445 101.363 870.038 98.7891 870.038 95.5382V59.2366H864.891V53.9539H870.038V44.2012C870.038 42.8467 870.129 41.8533 870.309 41.2212C870.58 40.4988 870.986 40.0473 871.528 39.8667C872.07 39.6861 872.838 39.5958 873.831 39.5958H879.656C879.656 39.7764 879.61 40.1827 879.52 40.8149C879.52 41.3567 879.52 42.1694 879.52 43.253V53.9539H892.117V59.2366H879.52V94.4546C879.52 97.9764 879.881 100.46 880.604 101.905C881.326 103.349 882.952 104.072 885.48 104.072C886.473 104.072 887.512 103.982 888.595 103.801C889.679 103.62 890.447 103.44 890.898 103.259V107.458C890.356 107.548 889.318 107.729 887.783 108C886.248 108.271 884.396 108.406 882.229 108.406ZM926.677 108.813C922.523 108.813 918.776 108.497 915.434 107.865C912.183 107.232 909.339 105.968 906.901 104.072C904.553 102.175 902.747 99.3761 901.483 95.6737C900.218 91.9713 899.586 87.0949 899.586 81.0447C899.586 74.9944 900.218 70.1181 901.483 66.4156C902.747 62.7132 904.553 59.9139 906.901 58.0175C909.339 56.1211 912.183 54.8569 915.434 54.2248C918.776 53.5927 922.523 53.2766 926.677 53.2766C930.741 53.2766 934.398 53.5927 937.649 54.2248C940.99 54.8569 943.835 56.1211 946.182 58.0175C948.53 59.9139 950.336 62.7132 951.601 66.4156C952.865 70.1181 953.497 74.9944 953.497 81.0447C953.497 87.1852 952.865 92.1067 951.601 95.8091C950.336 99.5116 948.53 102.311 946.182 104.207C943.835 106.013 940.99 107.232 937.649 107.865C934.398 108.497 930.741 108.813 926.677 108.813ZM926.677 103.53C930.289 103.53 933.359 102.988 935.888 101.905C938.507 100.821 940.493 98.6988 941.848 95.5382C943.202 92.3776 943.88 87.5465 943.88 81.0447C943.88 74.5429 943.202 69.7117 941.848 66.5511C940.493 63.3905 938.507 61.2684 935.888 60.1848C933.359 59.1011 930.289 58.5593 926.677 58.5593C923.065 58.5593 919.949 59.1011 917.331 60.1848C914.802 61.2684 912.816 63.3905 911.371 66.5511C910.016 69.7117 909.339 74.5429 909.339 81.0447C909.339 87.5465 910.016 92.3776 911.371 95.5382C912.816 98.6988 914.802 100.821 917.331 101.905C919.949 102.988 923.065 103.53 926.677 103.53ZM977.11 108H971.15C969.976 108 969.073 107.729 968.441 107.187C967.899 106.555 967.629 105.426 967.629 103.801V56.663C969.615 56.0308 972.324 55.3536 975.756 54.6312C979.278 53.9087 983.612 53.5475 988.759 53.5475C993.636 53.5475 997.474 53.9087 1000.27 54.6312C1003.16 55.2633 1005.24 56.1663 1006.5 57.3402C1007.86 58.5142 1008.72 59.959 1009.08 61.6748C1009.53 63.3002 1009.75 65.1514 1009.75 67.2284H1000.68L1000.54 65.332C1000.45 63.2551 999.776 61.7651 998.512 60.862C997.248 59.8687 995.758 59.2817 994.042 59.1011C992.326 58.8302 990.611 58.6948 988.895 58.6948C986.276 58.6948 983.928 58.9205 981.851 59.372C979.865 59.8236 978.284 60.4105 977.11 61.1329V108ZM1051.02 94.0482H1091.92C1091.92 97.2991 1091.83 99.8728 1091.65 101.769C1091.56 103.665 1091.16 105.065 1090.43 105.968C1089.8 106.871 1088.72 107.458 1087.18 107.729C1085.74 107.91 1083.62 108 1080.82 108H1014.04V93.9128C1014.22 93.8225 1014.94 93.1452 1016.21 91.881C1017.56 90.5264 1019.32 88.8558 1021.49 86.8692C1023.75 84.8825 1026.18 82.6701 1028.8 80.2319C1031.42 77.7938 1034.09 75.3556 1036.79 72.9174C1039.5 70.4793 1042.03 68.2217 1044.38 66.1447C1046.73 64.0678 1048.71 62.352 1050.34 60.9975C1050.7 60.7266 1051.2 60.5008 1051.83 60.3202C1052.46 60.0493 1052.91 59.8236 1053.18 59.6429H1015.93C1015.93 56.0308 1016.03 53.2315 1016.21 51.2448C1016.39 49.2581 1017.06 47.8585 1018.24 47.0457C1019.41 46.1427 1021.44 45.6912 1024.33 45.6912H1090.57C1090.57 45.7815 1090.52 46.5942 1090.43 48.1294C1090.43 49.6645 1090.16 51.5609 1089.62 53.8184C1089.17 56.076 1088.27 58.469 1086.91 60.9975C1085.56 63.526 1083.57 65.8738 1080.95 68.0411L1053.32 93.371L1051.02 94.0482Z" fill="#E73232"/>
<path d="M272.969 189.114V229.286H303.273V234.969H262.802V193.001C262.802 192.137 262.835 191.44 262.901 190.908C262.968 190.31 263.267 189.878 263.798 189.612C264.33 189.28 265.161 189.114 266.291 189.114H272.969ZM329.609 235.567C325.555 235.567 322.133 235.301 319.341 234.769C316.617 234.237 314.424 233.241 312.762 231.779C311.167 230.317 310.038 228.29 309.373 225.698C308.708 223.106 308.376 219.75 308.376 215.63C308.376 210.712 309.007 206.725 310.27 203.668C311.533 200.611 313.759 198.384 316.949 196.989C320.205 195.527 324.724 194.796 330.506 194.796C335.025 194.796 338.614 195.361 341.272 196.49C343.997 197.554 345.957 199.248 347.153 201.574C348.35 203.9 348.948 206.857 348.948 210.446V216.826H320.936C320.936 215.763 321.169 214.899 321.634 214.234C322.099 213.57 322.963 213.237 324.226 213.237H340.574L340.474 210.645C340.408 206.924 339.611 204.199 338.082 202.471C336.62 200.744 333.962 199.88 330.107 199.88C326.917 199.88 324.425 200.378 322.631 201.375C320.837 202.372 319.574 204 318.843 206.259C318.112 208.452 317.746 211.509 317.746 215.43C317.746 219.484 318.145 222.574 318.943 224.701C319.807 226.761 321.202 228.157 323.129 228.888C325.123 229.619 327.881 229.984 331.403 229.984C332.666 229.984 334.128 229.951 335.789 229.885C337.517 229.818 339.245 229.718 340.973 229.586C342.767 229.453 344.362 229.286 345.758 229.087C347.153 228.888 348.084 228.688 348.549 228.489V229.885C348.549 230.616 348.383 231.347 348.051 232.078C347.718 232.809 347.02 233.407 345.957 233.872C344.562 234.537 342.501 234.969 339.777 235.168C337.118 235.434 333.729 235.567 329.609 235.567ZM369.43 235.268C366.771 235.268 364.678 234.969 363.15 234.37C361.688 233.772 360.624 232.709 359.96 231.18C359.295 229.652 358.963 227.592 358.963 225V200.278H354.975V195.194H358.963V188.615C358.963 187.419 359.063 186.555 359.262 186.023C359.461 185.425 359.794 185.06 360.259 184.927C360.79 184.728 361.555 184.628 362.551 184.628H368.333C368.333 184.761 368.333 185.06 368.333 185.525C368.333 185.924 368.333 186.522 368.333 187.319V195.194H377.704V200.278H368.333V224.103C368.333 226.695 368.599 228.555 369.131 229.685C369.662 230.749 370.925 231.28 372.919 231.28C373.583 231.28 374.314 231.214 375.112 231.081C375.976 230.948 376.574 230.815 376.906 230.682V234.57C376.507 234.636 375.643 234.769 374.314 234.969C372.985 235.168 371.357 235.268 369.43 235.268ZM388.404 185.824H394.186L388.504 200.777H384.118L388.404 185.824ZM417.117 235.367C415.854 235.367 414.359 235.334 412.631 235.268C410.903 235.201 409.142 235.068 407.348 234.869C405.62 234.603 404.058 234.237 402.663 233.772C401.799 233.573 401.101 233.307 400.569 232.975C400.104 232.643 399.739 232.078 399.473 231.28C399.274 230.416 399.174 229.12 399.174 227.392C400.835 228.124 402.696 228.722 404.756 229.187C406.816 229.586 408.843 229.851 410.837 229.984C412.897 230.117 414.658 230.184 416.12 230.184C417.915 230.184 419.676 230.117 421.403 229.984C423.198 229.851 424.826 229.552 426.288 229.087C427.817 228.622 429.013 227.891 429.877 226.894C430.807 225.897 431.272 224.535 431.272 222.807C431.272 220.481 430.674 218.986 429.478 218.321C428.282 217.657 426.62 217.324 424.494 217.324H414.027C411.435 217.324 409.009 217.158 406.75 216.826C404.557 216.494 402.762 215.63 401.367 214.234C400.038 212.839 399.373 210.479 399.373 207.157C399.373 203.501 400.27 200.777 402.065 198.982C403.859 197.188 406.384 196.025 409.641 195.493C412.964 194.962 416.851 194.696 421.304 194.696C422.965 194.696 424.892 194.729 427.085 194.796C429.345 194.862 431.438 195.061 433.366 195.394C434.961 195.527 436.223 195.793 437.154 196.191C438.15 196.524 438.881 197.022 439.347 197.687C439.812 198.285 440.044 199.215 440.044 200.478V202.77C439.446 202.039 438.416 201.508 436.954 201.175C435.492 200.777 433.764 200.478 431.771 200.278C429.843 200.079 427.817 199.979 425.69 199.979C423.63 199.913 421.703 199.88 419.908 199.88C417.981 199.88 416.12 200.012 414.326 200.278C412.598 200.478 411.202 201.043 410.139 201.973C409.076 202.903 408.544 204.432 408.544 206.558C408.544 208.22 408.876 209.416 409.541 210.147C410.206 210.878 411.136 211.343 412.332 211.543C413.528 211.742 414.891 211.842 416.419 211.842H427.385C430.043 211.842 432.369 212.074 434.362 212.54C436.356 213.005 437.918 214.002 439.048 215.53C440.177 217.059 440.742 219.451 440.742 222.707C440.742 226.429 439.712 229.187 437.652 230.981C435.592 232.775 432.801 233.972 429.279 234.57C425.756 235.101 421.703 235.367 417.117 235.367ZM488.331 234.969C486.404 234.969 484.809 234.736 483.547 234.271C482.284 233.806 481.287 232.975 480.556 231.779C479.825 230.582 479.293 228.954 478.961 226.894L473.179 189.114H482.749L487.634 222.608C487.9 224.203 488.265 225.266 488.73 225.798C489.195 226.329 490.059 226.595 491.322 226.595H493.814L501.988 189.114H511.957L520.829 226.595H523.52C524.517 226.595 525.248 226.396 525.713 225.997C526.178 225.532 526.511 224.801 526.71 223.804L530.897 189.114H538.174L532.99 227.193C532.724 229.386 532.159 231.048 531.295 232.177C530.498 233.307 529.368 234.071 527.906 234.47C526.444 234.802 524.583 234.969 522.324 234.969H514.449L507.371 203.967L506.474 200.079L505.677 204.066L499.197 234.969H488.331ZM565.282 235.567C561.959 235.567 559.002 235.334 556.41 234.869C553.884 234.337 551.691 233.374 549.831 231.978C548.036 230.582 546.674 228.522 545.743 225.798C544.813 223.073 544.348 219.517 544.348 215.131C544.348 210.745 544.813 207.19 545.743 204.465C546.674 201.74 548.036 199.68 549.831 198.285C551.691 196.889 553.884 195.959 556.41 195.493C559.002 194.962 561.959 194.696 565.282 194.696C568.472 194.696 571.329 194.962 573.854 195.493C576.446 195.959 578.639 196.889 580.434 198.285C582.228 199.68 583.59 201.74 584.521 204.465C585.518 207.19 586.016 210.745 586.016 215.131C586.016 219.584 585.518 223.173 584.521 225.897C583.59 228.622 582.228 230.682 580.434 232.078C578.639 233.407 576.446 234.337 573.854 234.869C571.329 235.334 568.472 235.567 565.282 235.567ZM565.282 230.582C567.674 230.582 569.701 230.217 571.362 229.486C573.09 228.755 574.386 227.293 575.25 225.1C576.114 222.907 576.546 219.584 576.546 215.131C576.546 210.679 576.114 207.356 575.25 205.163C574.386 202.97 573.09 201.508 571.362 200.777C569.701 200.046 567.674 199.68 565.282 199.68C562.889 199.68 560.829 200.046 559.101 200.777C557.373 201.508 556.044 202.97 555.114 205.163C554.25 207.356 553.818 210.679 553.818 215.131C553.818 219.584 554.25 222.907 555.114 225.1C556.044 227.293 557.373 228.755 559.101 229.486C560.829 230.217 562.889 230.582 565.282 230.582ZM604.958 234.969H598.579C597.582 234.969 596.818 234.703 596.286 234.171C595.754 233.639 595.488 232.643 595.488 231.18V197.188C597.083 196.723 599.31 196.224 602.167 195.693C605.025 195.161 608.447 194.895 612.435 194.895C616.356 194.895 619.446 195.161 621.705 195.693C623.965 196.158 625.626 196.889 626.69 197.886C627.819 198.816 628.517 199.979 628.783 201.375C629.115 202.704 629.281 204.266 629.281 206.06H620.31L620.21 204.664C620.21 203.069 619.778 201.94 618.914 201.275C618.117 200.544 617.153 200.079 616.023 199.88C614.894 199.68 613.764 199.581 612.634 199.581C610.906 199.581 609.345 199.747 607.949 200.079C606.62 200.411 605.623 200.843 604.958 201.375V234.969ZM636.669 234.969L636.569 188.117C636.569 186.721 636.769 185.791 637.167 185.326C637.633 184.794 638.596 184.528 640.058 184.528H646.039V215.032L662.986 197.288C663.85 196.49 664.714 195.925 665.577 195.593C666.508 195.194 667.804 194.995 669.465 194.995C670.728 194.995 671.891 195.028 672.954 195.095C674.017 195.095 674.981 195.128 675.845 195.194C675.646 195.394 675.214 195.726 674.549 196.191C673.951 196.656 673.286 197.188 672.555 197.786C671.824 198.318 671.16 198.85 670.562 199.381L657.702 211.642L675.047 230.881C675.779 231.679 676.51 232.41 677.241 233.075C677.972 233.739 678.669 234.37 679.334 234.969C677.673 235.035 675.978 235.068 674.25 235.068C672.589 235.068 671.093 235.068 669.764 235.068C668.236 235.068 667.073 234.902 666.275 234.57C665.544 234.171 664.747 233.54 663.883 232.676L651.223 218.421L646.039 222.807V234.969H636.669ZM686.282 219.418L683.989 189.213C683.989 187.685 684.289 186.522 684.887 185.724C685.485 184.927 686.448 184.528 687.778 184.528H693.858L693.659 193.599L691.167 219.418H686.282ZM683.69 231.679C683.69 230.15 684.189 229.22 685.186 228.888C686.183 228.489 687.379 228.29 688.774 228.29C690.236 228.29 691.399 228.489 692.263 228.888C693.194 229.22 693.659 230.15 693.659 231.679C693.659 232.742 693.426 233.54 692.961 234.071C692.562 234.537 691.964 234.836 691.167 234.969C690.436 235.101 689.605 235.168 688.675 235.168C687.811 235.168 686.98 235.101 686.183 234.969C685.452 234.836 684.853 234.537 684.388 234.071C683.923 233.54 683.69 232.742 683.69 231.679Z" fill="#0A0000"/>
</g>
<defs>
<clipPath id="clip0_5461_6703">
<rect width="1093.74" height="264.968" fill="white"/>
</clipPath>
</defs>
</svg>
