<svg width="268" height="67" viewBox="0 0 268 67" fill="none" xmlns="http://www.w3.org/2000/svg">
<path d="M19.5305 45V29.1991C19.5305 28.3234 19.685 27.7825 19.994 27.5765C20.3031 27.3447 20.947 27.2288 21.9257 27.2288H26.7548L31.2749 37.312L31.3522 37.6984L31.4294 37.6597L31.5067 37.2734L35.8722 27.2288H41.0104C41.9376 27.2288 42.53 27.3576 42.7875 27.6151C43.0709 27.8727 43.2125 28.4007 43.2125 29.1991V43.0297C43.2125 43.6736 43.1481 44.1372 43.0193 44.4205C42.8906 44.6781 42.6588 44.8455 42.3239 44.9227C41.9891 44.9742 41.4998 45 40.8559 45H36.8767V34.0282L36.6063 35.1099L32.318 45H28.4933L24.2437 35.2258L24.0119 34.1441V45H19.5305ZM55.2464 45.1932C53.4435 45.1932 51.9883 45.1288 50.8809 45C49.7734 44.897 48.9106 44.6781 48.2924 44.3432C47.7001 44.0084 47.3009 43.5319 47.0948 42.9138C46.8888 42.2957 46.7858 41.4973 46.7858 40.5186C46.7858 39.205 46.9145 38.2135 47.1721 37.5438C47.4296 36.8484 47.8804 36.372 48.5242 36.1144C49.1681 35.8568 50.0309 35.7281 51.1127 35.7281C51.7565 35.7281 52.4906 35.7409 53.3147 35.7667C54.1647 35.7667 54.9888 35.7796 55.7873 35.8053C56.6114 35.8311 57.3197 35.8826 57.9121 35.9599C58.5302 36.0114 58.9552 36.0629 59.187 36.1144C59.187 35.316 59.1097 34.685 58.9552 34.2214C58.8264 33.7578 58.6075 33.4101 58.2984 33.1783C57.9893 32.9207 57.5773 32.7533 57.0621 32.6761C56.547 32.5988 55.916 32.5602 55.1691 32.5602C54.2677 32.5602 53.3663 32.573 52.4648 32.5988C51.5891 32.6245 50.7263 32.6761 49.8764 32.7533C49.0522 32.8306 48.2924 32.9207 47.5971 33.0238V31.942C47.5971 31.2466 47.7516 30.7315 48.0607 30.3967C48.3697 30.0619 48.7947 29.843 49.3355 29.7399C49.9279 29.6112 50.8036 29.521 51.9626 29.4695C53.1473 29.418 54.4222 29.3923 55.7873 29.3923C57.5129 29.3923 58.9552 29.4824 60.1142 29.6627C61.2989 29.843 62.2261 30.1649 62.8957 30.6285C63.5654 31.0921 64.0419 31.7875 64.3252 32.7147C64.6085 33.6161 64.7501 34.8266 64.7501 36.3462V44.0342C64.338 44.4205 63.3078 44.7167 61.6595 44.9227C60.0369 45.103 57.8992 45.1932 55.2464 45.1932ZM55.2078 42.7979C55.9289 42.7979 56.5342 42.785 57.0235 42.7593C57.5386 42.7078 57.9765 42.6434 58.337 42.5661C58.6976 42.4889 58.9809 42.3987 59.187 42.2957V37.9688C58.9037 37.8915 58.5044 37.8271 57.9893 37.7756C57.5 37.7241 56.9978 37.6855 56.4827 37.6597C55.9675 37.634 55.5683 37.6211 55.285 37.6211C54.6669 37.6211 54.1647 37.6726 53.7783 37.7756C53.392 37.8786 53.1087 38.1104 52.9284 38.471C52.7739 38.8316 52.6966 39.3853 52.6966 40.1322C52.6966 40.7761 52.761 41.3041 52.8898 41.7162C53.0186 42.1025 53.2632 42.3858 53.6238 42.5661C53.9844 42.7207 54.5124 42.7979 55.2078 42.7979ZM73.9517 45.1545C72.5609 45.1545 71.4663 45.0129 70.6679 44.7296C69.8953 44.4205 69.3544 43.9312 69.0453 43.2615C68.7363 42.5661 68.5817 41.6132 68.5817 40.4027V32.5988H66.9205V29.5854H68.5817V27.6151C68.5817 26.9712 68.6204 26.4948 68.6976 26.1857C68.8007 25.8766 68.9938 25.6835 69.2771 25.6062C69.5604 25.5289 70.0112 25.4903 70.6293 25.4903H74.3381C74.3381 25.5933 74.3381 25.7221 74.3381 25.8766C74.3381 26.0312 74.3381 26.2243 74.3381 26.4561V29.5854H78.0855V32.5988H74.3767V39.9391C74.3767 40.9693 74.4668 41.7162 74.6471 42.1798C74.8532 42.6434 75.3812 42.8752 76.2311 42.8752C76.4629 42.8752 76.7591 42.8494 77.1196 42.7979C77.506 42.7464 77.7764 42.6949 77.9309 42.6434V44.7682C77.7506 44.794 77.2999 44.8712 76.5788 45C75.8834 45.103 75.0077 45.1545 73.9517 45.1545ZM89.5275 45.2318C87.2095 45.2318 85.3422 45.0386 83.9257 44.6523C82.5349 44.2402 81.5176 43.4933 80.8737 42.4116C80.2556 41.3041 79.9465 39.7073 79.9465 37.6211C79.9465 35.3546 80.2556 33.629 80.8737 32.4443C81.5176 31.2595 82.5349 30.4482 83.9257 30.0104C85.3422 29.5725 87.2095 29.3536 89.5275 29.3536C90.1971 29.3536 90.841 29.3923 91.4591 29.4695C92.103 29.521 92.8757 29.6112 93.7771 29.7399C94.2922 29.7915 94.7043 29.9074 95.0134 30.0876C95.3482 30.2679 95.5929 30.5641 95.7474 30.9762C95.9019 31.3883 95.9792 32.0064 95.9792 32.8306C95.6959 32.7276 95.2581 32.6374 94.6657 32.5602C94.0991 32.4571 93.4809 32.3799 92.8113 32.3284C92.1417 32.2769 91.5493 32.2511 91.0342 32.2511C89.7207 32.2511 88.6776 32.4056 87.9049 32.7147C87.158 33.0238 86.6171 33.5389 86.2823 34.26C85.9732 34.9812 85.8187 35.9727 85.8187 37.2348C85.8187 38.471 85.9732 39.4497 86.2823 40.1709C86.6171 40.892 87.158 41.4071 87.9049 41.7162C88.6776 42.0253 89.7207 42.1798 91.0342 42.1798C91.6265 42.1798 92.2447 42.154 92.8886 42.1025C93.5582 42.051 94.1635 41.9866 94.7043 41.9094C95.2709 41.8063 95.6959 41.7033 95.9792 41.6003V43.1456C95.9792 43.7895 95.683 44.266 95.0906 44.575C94.524 44.8583 93.7514 45.0386 92.7727 45.1159C91.794 45.1932 90.7122 45.2318 89.5275 45.2318ZM100.756 45C99.855 45 99.2884 44.8841 99.0566 44.6523C98.8248 44.3947 98.7089 43.9183 98.7089 43.2229V25.4903H104.465V29.9717C104.774 29.8945 105.135 29.8301 105.547 29.7786C105.985 29.7271 106.448 29.6884 106.938 29.6627C107.427 29.6369 107.891 29.624 108.328 29.624C110.08 29.624 111.484 29.7528 112.539 30.0104C113.595 30.2679 114.394 30.6671 114.935 31.208C115.476 31.7489 115.836 32.4571 116.016 33.3328C116.223 34.2085 116.326 35.2774 116.326 36.5394V42.5661C116.326 43.2615 116.248 43.7895 116.094 44.1501C115.965 44.4849 115.72 44.7167 115.36 44.8455C114.999 44.9485 114.471 45 113.776 45H110.685V35.7667C110.685 34.788 110.569 34.054 110.337 33.5646C110.106 33.0495 109.732 32.7147 109.217 32.5602C108.728 32.3799 108.071 32.2897 107.247 32.2897C106.963 32.2897 106.642 32.3026 106.281 32.3284C105.946 32.3541 105.611 32.4056 105.276 32.4829C104.942 32.5344 104.671 32.5988 104.465 32.6761V45H100.756ZM119.497 36.1144C119.497 34.2858 119.677 32.7791 120.038 31.5943C120.424 30.4096 121.029 29.4824 121.853 28.8128C122.678 28.1431 123.734 27.6795 125.021 27.422C126.335 27.1644 127.919 27.0356 129.773 27.0356C130.726 27.0356 131.64 27.0743 132.516 27.1515C133.418 27.203 134.332 27.3061 135.259 27.4606C136.032 27.5894 136.521 27.7697 136.727 28.0015C136.959 28.2075 137.075 28.5037 137.075 28.89V29.8558C136.585 29.624 135.903 29.4309 135.027 29.2764C134.152 29.0961 133.25 28.9673 132.323 28.89C131.396 28.8128 130.572 28.7741 129.85 28.7741C128.048 28.7741 126.605 28.993 125.524 29.4309C124.468 29.843 123.708 30.577 123.244 31.633C122.781 32.6889 122.549 34.1827 122.549 36.1144C122.549 38.0461 122.768 39.5527 123.206 40.6345C123.643 41.6904 124.403 42.4373 125.485 42.8752C126.592 43.313 128.112 43.5319 130.044 43.5319C130.739 43.5319 131.525 43.4933 132.4 43.416C133.276 43.3388 134.126 43.2229 134.95 43.0683C135.774 42.8881 136.482 42.7078 137.075 42.5275V43.416C137.075 43.7509 136.959 44.0471 136.727 44.3046C136.495 44.5364 135.98 44.7038 135.182 44.8068C134.28 44.9871 133.379 45.103 132.477 45.1545C131.576 45.2318 130.649 45.2704 129.696 45.2704C127.79 45.2704 126.18 45.1417 124.867 44.8841C123.553 44.6008 122.497 44.1372 121.699 43.4933C120.926 42.8237 120.36 41.8965 119.999 40.7117C119.664 39.527 119.497 37.9945 119.497 36.1144ZM143.304 45H141.605C141.27 45 141.012 44.9227 140.832 44.7682C140.677 44.5879 140.6 44.266 140.6 43.8024V30.3581C141.167 30.1778 141.939 29.9846 142.918 29.7786C143.923 29.5725 145.159 29.4695 146.627 29.4695C148.018 29.4695 149.112 29.5725 149.911 29.7786C150.735 29.9589 151.327 30.2164 151.688 30.5512C152.074 30.8861 152.319 31.2981 152.422 31.7875C152.551 32.2511 152.615 32.7791 152.615 33.3715H150.027L149.988 32.8306C149.962 32.2382 149.769 31.8133 149.408 31.5557C149.048 31.2724 148.623 31.105 148.134 31.0535C147.644 30.9762 147.155 30.9376 146.665 30.9376C145.919 30.9376 145.249 31.002 144.657 31.1307C144.09 31.2595 143.639 31.4269 143.304 31.633V45ZM162.993 45.2318C161.499 45.2318 160.237 45.1288 159.207 44.9227C158.202 44.7167 157.391 44.3304 156.773 43.7637C156.18 43.1971 155.743 42.4116 155.459 41.4071C155.202 40.3769 155.073 39.0505 155.073 37.4279C155.073 35.5735 155.305 34.054 155.768 32.8692C156.232 31.6845 157.056 30.8088 158.241 30.2422C159.426 29.6756 161.087 29.3923 163.225 29.3923C164.873 29.3923 166.186 29.6112 167.165 30.049C168.17 30.4869 168.891 31.1565 169.329 32.0579C169.792 32.9594 170.024 34.1312 170.024 35.5735V37.7756H159.129C159.129 37.4666 159.207 37.209 159.361 37.003C159.516 36.7712 159.799 36.6553 160.211 36.6553H167.59L167.551 35.5349C167.526 33.9381 167.178 32.7791 166.508 32.0579C165.864 31.3368 164.731 30.9762 163.109 30.9762C161.744 30.9762 160.675 31.1822 159.902 31.5943C159.129 32.0064 158.589 32.6761 158.28 33.6033C157.97 34.5304 157.816 35.7925 157.816 37.3893C157.816 39.0891 157.983 40.3898 158.318 41.2912C158.679 42.1669 159.271 42.7722 160.095 43.107C160.919 43.416 162.04 43.5706 163.456 43.5706C163.946 43.5706 164.499 43.5577 165.118 43.5319C165.761 43.4804 166.405 43.4289 167.049 43.3774C167.693 43.3259 168.26 43.2615 168.749 43.1842C169.264 43.0812 169.625 42.9782 169.831 42.8752V43.3388C169.831 43.5963 169.754 43.841 169.599 44.0728C169.47 44.3046 169.187 44.4978 168.749 44.6523C168.182 44.8841 167.41 45.0386 166.431 45.1159C165.478 45.1932 164.332 45.2318 162.993 45.2318ZM180.217 45.2704C178.697 45.2704 177.461 45.1932 176.508 45.0386C175.555 44.8841 174.821 44.6265 174.306 44.266C173.817 43.8796 173.469 43.3774 173.263 42.7593C173.083 42.1412 172.993 41.3814 172.993 40.4799C172.993 39.1664 173.147 38.162 173.456 37.4666C173.765 36.7712 174.306 36.2947 175.079 36.0371C175.852 35.7796 176.882 35.6508 178.169 35.6508C178.813 35.6508 179.509 35.6766 180.256 35.7281C181.028 35.7538 181.762 35.7925 182.458 35.844C183.179 35.8697 183.797 35.9084 184.312 35.9599C184.853 36.0114 185.214 36.0758 185.394 36.153C185.394 34.9683 185.291 34.0282 185.085 33.3328C184.879 32.6374 184.557 32.1223 184.119 31.7875C183.707 31.4527 183.179 31.2338 182.535 31.1307C181.917 31.0277 181.196 30.9762 180.372 30.9762C179.522 30.9762 178.659 31.0148 177.783 31.0921C176.933 31.1436 176.148 31.2466 175.427 31.4012C174.705 31.5299 174.152 31.7102 173.765 31.942V31.3625C173.765 30.8217 173.92 30.4482 174.229 30.2422C174.564 30.0104 174.937 29.8558 175.349 29.7786C175.839 29.6498 176.547 29.5468 177.474 29.4695C178.427 29.3923 179.419 29.3665 180.449 29.3923C181.762 29.3923 182.883 29.4566 183.81 29.5854C184.763 29.7142 185.548 29.9975 186.167 30.4353C186.785 30.8474 187.248 31.4784 187.557 32.3284C187.866 33.1783 188.021 34.3373 188.021 35.8053V43.7637C187.866 44.2788 187.184 44.6652 185.973 44.9227C184.763 45.1545 182.844 45.2704 180.217 45.2704ZM180.217 43.9569C181.402 43.9569 182.342 43.9183 183.037 43.841C183.758 43.7637 184.299 43.6607 184.66 43.5319C185.046 43.4032 185.291 43.2358 185.394 43.0297V37.2734C185.162 37.1961 184.724 37.1189 184.08 37.0416C183.462 36.9643 182.805 36.8999 182.11 36.8484C181.415 36.7712 180.822 36.7325 180.333 36.7325C179.225 36.7325 178.324 36.7969 177.629 36.9257C176.959 37.0545 176.47 37.3764 176.161 37.8915C175.877 38.4066 175.736 39.205 175.736 40.2868C175.736 41.1367 175.839 41.8321 176.045 42.373C176.251 42.9138 176.663 43.313 177.281 43.5706C177.925 43.8281 178.904 43.9569 180.217 43.9569ZM196.188 45.1159C195.312 45.1159 194.63 45.0129 194.14 44.8068C193.651 44.575 193.29 44.1887 193.059 43.6478C192.827 43.107 192.711 42.373 192.711 41.4458V31.0921H191.243V29.5854H192.711V26.8038C192.711 26.4175 192.737 26.1342 192.788 25.9539C192.865 25.7479 192.981 25.6191 193.136 25.5676C193.29 25.5161 193.509 25.4903 193.793 25.4903H195.454C195.454 25.5418 195.441 25.6577 195.415 25.838C195.415 25.9925 195.415 26.2243 195.415 26.5334V29.5854H199.008V31.0921H195.415V41.1367C195.415 42.1412 195.518 42.8494 195.724 43.2615C195.93 43.6736 196.394 43.8796 197.115 43.8796C197.398 43.8796 197.695 43.8539 198.004 43.8024C198.313 43.7509 198.532 43.6994 198.66 43.6478V44.8455C198.506 44.8712 198.21 44.9227 197.772 45C197.334 45.0773 196.806 45.1159 196.188 45.1159ZM208.865 45.2318C207.68 45.2318 206.611 45.1417 205.658 44.9614C204.731 44.7811 203.92 44.4205 203.225 43.8796C202.555 43.3388 202.04 42.5404 201.679 41.4844C201.319 40.4284 201.138 39.0376 201.138 37.312C201.138 35.5864 201.319 34.1956 201.679 33.1397C202.04 32.0837 202.555 31.2853 203.225 30.7444C203.92 30.2035 204.731 29.843 205.658 29.6627C206.611 29.4824 207.68 29.3923 208.865 29.3923C210.024 29.3923 211.067 29.4824 211.994 29.6627C212.947 29.843 213.758 30.2035 214.428 30.7444C215.098 31.2853 215.613 32.0837 215.973 33.1397C216.334 34.1956 216.514 35.5864 216.514 37.312C216.514 39.0634 216.334 40.4671 215.973 41.523C215.613 42.579 215.098 43.3774 214.428 43.9183C213.758 44.4334 212.947 44.7811 211.994 44.9614C211.067 45.1417 210.024 45.2318 208.865 45.2318ZM208.865 43.7251C209.895 43.7251 210.771 43.5706 211.492 43.2615C212.239 42.9524 212.806 42.3472 213.192 41.4458C213.578 40.5443 213.771 39.1664 213.771 37.312C213.771 35.4576 213.578 34.0797 213.192 33.1783C212.806 32.2769 212.239 31.6716 211.492 31.3625C210.771 31.0535 209.895 30.8989 208.865 30.8989C207.835 30.8989 206.946 31.0535 206.199 31.3625C205.478 31.6716 204.912 32.2769 204.499 33.1783C204.113 34.0797 203.92 35.4576 203.92 37.312C203.92 39.1664 204.113 40.5443 204.499 41.4458C204.912 42.3472 205.478 42.9524 206.199 43.2615C206.946 43.5706 207.835 43.7251 208.865 43.7251ZM223.249 45H221.549C221.214 45 220.957 44.9227 220.777 44.7682C220.622 44.5879 220.545 44.266 220.545 43.8024V30.3581C221.111 30.1778 221.884 29.9846 222.863 29.7786C223.867 29.5725 225.104 29.4695 226.572 29.4695C227.962 29.4695 229.057 29.5725 229.855 29.7786C230.68 29.9589 231.272 30.2164 231.632 30.5512C232.019 30.8861 232.263 31.2981 232.367 31.7875C232.495 32.2511 232.56 32.7791 232.56 33.3715H229.971L229.933 32.8306C229.907 32.2382 229.714 31.8133 229.353 31.5557C228.993 31.2724 228.568 31.105 228.078 31.0535C227.589 30.9762 227.1 30.9376 226.61 30.9376C225.863 30.9376 225.194 31.002 224.601 31.1307C224.035 31.2595 223.584 31.4269 223.249 31.633V45ZM241.044 45.1545C240.607 45.1545 240.053 45.1417 239.383 45.1159C238.739 45.0901 238.07 45.0386 237.374 44.9614C236.705 44.8583 236.099 44.7167 235.559 44.5364C235.301 44.4334 235.095 44.3304 234.94 44.2273C234.786 44.1243 234.67 43.944 234.593 43.6865C234.541 43.4289 234.515 43.0426 234.515 42.5275C235.082 42.8108 235.752 43.0426 236.524 43.2229C237.297 43.3774 238.07 43.4804 238.842 43.5319C239.615 43.5835 240.259 43.6092 240.774 43.6092C241.547 43.6092 242.294 43.5835 243.015 43.5319C243.762 43.4547 244.431 43.313 245.024 43.107C245.616 42.8752 246.08 42.5404 246.414 42.1025C246.775 41.6647 246.955 41.0852 246.955 40.364C246.955 39.3081 246.685 38.6384 246.144 38.3551C245.603 38.0461 244.869 37.8915 243.942 37.8915H240.04C239.087 37.8915 238.186 37.84 237.336 37.737C236.512 37.6082 235.829 37.2863 235.288 36.7712C234.773 36.2303 234.515 35.3289 234.515 34.0668C234.515 32.7018 234.85 31.6845 235.52 31.0148C236.19 30.3452 237.13 29.9074 238.34 29.7013C239.576 29.4953 241.006 29.3923 242.628 29.3923C243.221 29.3923 243.929 29.4051 244.753 29.4309C245.577 29.4566 246.363 29.5339 247.11 29.6627C247.625 29.7399 248.05 29.843 248.385 29.9717C248.745 30.0748 249.003 30.2293 249.157 30.4353C249.338 30.6414 249.428 30.9376 249.428 31.3239V32.0966C249.196 31.839 248.81 31.633 248.269 31.4784C247.728 31.3239 247.097 31.208 246.376 31.1307C245.68 31.0535 244.959 31.0148 244.212 31.0148C243.465 30.9891 242.77 30.9762 242.126 30.9762C241.302 30.9762 240.504 31.0277 239.731 31.1307C238.958 31.2338 238.327 31.4913 237.838 31.9034C237.374 32.2897 237.143 32.9594 237.143 33.9123C237.143 34.6335 237.297 35.1615 237.606 35.4963C237.915 35.8311 238.327 36.05 238.842 36.153C239.383 36.2303 239.988 36.2689 240.658 36.2689H244.637C245.616 36.2689 246.479 36.3591 247.226 36.5394C247.998 36.6939 248.591 37.0673 249.003 37.6597C249.441 38.2263 249.66 39.1278 249.66 40.364C249.66 41.7291 249.286 42.7593 248.539 43.4547C247.792 44.1501 246.762 44.6137 245.449 44.8455C244.161 45.0515 242.693 45.1545 241.044 45.1545Z" fill="#E73232"/>
</svg>
