<svg width="54" height="54" viewBox="0 0 54 54" fill="none" xmlns="http://www.w3.org/2000/svg">
<rect x="0.5" y="0.5" width="53" height="53" rx="5.5" fill="white"/>
<rect x="0.5" y="0.5" width="53" height="53" rx="5.5" stroke="#E73232"/>
<path d="M33 25C33 21.6863 30.3137 19 27 19C23.6863 19 21 21.6863 21 25V33H33V25ZM35 33.6667L35.4 34.2C35.5657 34.4209 35.5209 34.7343 35.3 34.9C35.2135 34.9649 35.1082 35 35 35H19C18.7239 35 18.5 34.7761 18.5 34.5C18.5 34.3918 18.5351 34.2865 18.6 34.2L19 33.6667V25C19 20.5817 22.5817 17 27 17C31.4183 17 35 20.5817 35 25V33.6667ZM24.5 36H29.5C29.5 37.3807 28.3807 38.5 27 38.5C25.6193 38.5 24.5 37.3807 24.5 36Z" fill="#0A0000"/>
<circle cx="35" cy="21" r="5" fill="#E73232" stroke="white" stroke-width="2"/>
</svg>
