<svg width="22" height="24" viewBox="0 0 22 24" fill="none" xmlns="http://www.w3.org/2000/svg">
<path fill-rule="evenodd" clip-rule="evenodd" d="M3.6668 6.49782C3.51533 6.41993 3.33202 6.513 3.30552 6.68125L1.70265 16.8595C1.67876 17.0112 1.79603 17.1484 1.94961 17.1484H4.30589V18.6484H1.94961C0.874552 18.6484 0.0536757 17.6881 0.220915 16.6261L1.82378 6.44791C2.00926 5.27015 3.29245 4.61862 4.35276 5.16385L10.8655 8.51282C10.9372 8.54972 11.0224 8.54972 11.0941 8.51282L17.6069 5.16385C18.6672 4.61862 19.9504 5.27015 20.1358 6.44791L21.7387 16.6261C21.9059 17.6881 21.0851 18.6484 20.01 18.6484H17.5657V17.1484H20.01C20.1636 17.1484 20.2809 17.0112 20.257 16.8595L18.6541 6.68125C18.6276 6.513 18.4443 6.41993 18.2928 6.49782L11.7801 9.84679C11.2778 10.1051 10.6818 10.1051 10.1795 9.84679L3.6668 6.49782Z" fill="#E73232"/>
<path fill-rule="evenodd" clip-rule="evenodd" d="M10.9805 5.5C12.085 5.5 12.9805 4.60457 12.9805 3.5C12.9805 2.39543 12.085 1.5 10.9805 1.5C9.8759 1.5 8.98047 2.39543 8.98047 3.5C8.98047 4.60457 9.8759 5.5 10.9805 5.5ZM10.9805 7C12.9135 7 14.4805 5.433 14.4805 3.5C14.4805 1.567 12.9135 0 10.9805 0C9.04747 0 7.48047 1.567 7.48047 3.5C7.48047 5.433 9.04747 7 10.9805 7Z" fill="#E73232"/>
<path fill-rule="evenodd" clip-rule="evenodd" d="M15.6707 20.6016H6.28906C6.01203 20.6016 5.7878 20.3763 5.78907 20.0993L5.81563 14.2993C5.81689 14.024 6.04037 13.8016 6.31562 13.8016H15.6441C15.9194 13.8016 16.1429 14.024 16.1441 14.2993L16.1707 20.0993C16.172 20.3763 15.9477 20.6016 15.6707 20.6016ZM6.28906 22.1016C5.18092 22.1016 4.28401 21.2005 4.28908 20.0924L4.31564 14.2924C4.32068 13.1914 5.21462 12.3016 6.31562 12.3016H15.6441C16.7451 12.3016 17.6391 13.1914 17.6441 14.2924L17.6707 20.0924C17.6758 21.2005 16.7789 22.1016 15.6707 22.1016H6.28906Z" fill="#0A0000"/>
<path fill-rule="evenodd" clip-rule="evenodd" d="M5.49228 24C5.21143 24 4.98702 23.7399 4.99847 23.4276C5.00927 23.1328 5.22716 22.9 5.49228 22.9H16.5038C16.7689 22.9 16.9868 23.1328 16.9976 23.4276C17.0091 23.7399 16.7847 24 16.5038 24H5.49228Z" fill="#0A0000"/>
</svg>
