<svg width="24" height="24" viewBox="0 0 24 24" fill="none" xmlns="http://www.w3.org/2000/svg">
<path fill-rule="evenodd" clip-rule="evenodd" d="M11.2503 3.27886V2C11.2503 1.80109 11.3293 1.61032 11.4699 1.46967C11.6106 1.32902 11.8014 1.25 12.0003 1.25C12.1992 1.25 12.3899 1.32902 12.5306 1.46967C12.6713 1.61032 12.7503 1.80109 12.7503 2V3.2797C15.0606 3.46035 17.2409 4.45875 18.8911 6.10892C20.7189 7.93677 21.7471 10.415 21.75 13C21.75 14.9284 21.1782 16.8134 20.1068 18.4168C19.8425 18.8125 19.5506 19.1866 19.2341 19.5368L20.8863 21.521C20.9771 21.6305 21.035 21.7635 21.0531 21.9046C21.0712 22.0457 21.0488 22.189 20.9885 22.3178C20.9282 22.4467 20.8325 22.5557 20.7126 22.6322C20.5927 22.7088 20.4535 22.7496 20.3113 22.75C20.201 22.7503 20.0921 22.7262 19.9923 22.6793C19.8925 22.6325 19.8044 22.564 19.7343 22.479L18.1443 20.5703C17.4175 21.1603 16.6055 21.6457 15.7312 22.0078C13.9496 22.7458 11.9892 22.9389 10.0979 22.5627C8.53807 22.2524 7.08303 21.5664 5.85599 20.5706L4.26627 22.479C4.19604 22.5639 4.10789 22.6323 4.00813 22.6791C3.90837 22.726 3.79948 22.7502 3.68927 22.75C3.54702 22.7496 3.40783 22.7088 3.28792 22.6322C3.16801 22.5557 3.07233 22.4467 3.01205 22.3178C2.95177 22.189 2.92938 22.0457 2.94748 21.9046C2.96557 21.7635 3.02342 21.6305 3.11427 21.521L4.76617 19.5371C3.58767 18.2331 2.78145 16.632 2.43735 14.9021C2.06114 13.0108 2.25422 11.0504 2.99218 9.26884C3.73013 7.48726 4.97982 5.96452 6.58319 4.89317C7.97803 3.96118 9.58603 3.4072 11.2503 3.27886ZM14.287 15.6929C14.3779 15.6552 14.4605 15.5998 14.53 15.53C14.5997 15.4604 14.6549 15.3778 14.6926 15.2869C14.7304 15.1959 14.7498 15.0984 14.7498 15C14.7498 14.9016 14.7304 14.8041 14.6926 14.7131C14.6549 14.6222 14.5997 14.5396 14.53 14.47L12.75 12.689V9C12.75 8.80109 12.671 8.61032 12.5303 8.46967C12.3897 8.32902 12.1989 8.25 12 8.25C11.8011 8.25 11.6103 8.32902 11.4697 8.46967C11.329 8.61032 11.25 8.80109 11.25 9V13C11.2499 13.0985 11.2693 13.196 11.3071 13.287C11.3448 13.3779 11.4002 13.4605 11.47 13.53L13.47 15.53C13.5395 15.5998 13.6221 15.6552 13.713 15.6929C13.804 15.7307 13.9015 15.7502 14 15.7502C14.0985 15.7502 14.196 15.7307 14.287 15.6929Z" fill="#E73232"/>
<path d="M20.3573 6.65C20.4711 6.71615 20.6006 6.75067 20.7323 6.75C20.864 6.75019 20.9935 6.71561 21.1076 6.64977C21.2217 6.58393 21.3165 6.48915 21.3823 6.375C21.6844 5.85064 21.8051 5.24131 21.7259 4.64137C21.6466 4.04143 21.3717 3.48437 20.9438 3.05646C20.5159 2.62855 19.9588 2.35368 19.3589 2.27441C18.759 2.19515 18.1496 2.31591 17.6253 2.618C17.4529 2.71746 17.3271 2.88132 17.2755 3.07355C17.2239 3.26577 17.2508 3.47061 17.3503 3.643C17.4497 3.81539 17.6136 3.94121 17.8058 3.99278C17.998 4.04436 18.2029 4.01746 18.3753 3.918C18.6137 3.78098 18.8906 3.72632 19.1632 3.76248C19.4357 3.79864 19.6888 3.92359 19.8832 4.11803C20.0777 4.31246 20.2026 4.56554 20.2388 4.83812C20.2749 5.1107 20.2203 5.3876 20.0833 5.626C19.9839 5.79815 19.957 6.0027 20.0084 6.1947C20.0597 6.3867 20.1852 6.55046 20.3573 6.65Z" fill="#E73232"/>
<path d="M2.89292 6.64977C3.00704 6.71561 3.13652 6.75019 3.26827 6.75C3.40004 6.75037 3.52951 6.7155 3.64327 6.649C3.8153 6.54946 3.94079 6.3857 3.99217 6.1937C4.04354 6.0017 4.0166 5.79715 3.91727 5.625C3.78069 5.38661 3.72639 5.1099 3.76274 4.83758C3.7991 4.56525 3.92409 4.31247 4.11841 4.11826C4.31274 3.92405 4.56559 3.79921 4.83794 3.76301C5.11028 3.72682 5.38696 3.78128 5.62527 3.918C5.71063 3.96725 5.80485 3.9992 5.90256 4.01203C6.00027 4.02486 6.09954 4.01832 6.19472 3.99278C6.2899 3.96725 6.37912 3.92322 6.45728 3.8632C6.53545 3.80318 6.60102 3.72836 6.65027 3.643C6.69952 3.55764 6.73147 3.46342 6.7443 3.36571C6.75713 3.268 6.75059 3.16873 6.72505 3.07355C6.69952 2.97837 6.65548 2.88915 6.59547 2.81098C6.53545 2.73282 6.46063 2.66725 6.37527 2.618C5.85091 2.31591 5.24158 2.19515 4.64164 2.27441C4.0417 2.35368 3.48464 2.62855 3.05673 3.05646C2.62882 3.48437 2.35395 4.04143 2.27468 4.64137C2.19542 5.24131 2.31618 5.85064 2.61827 6.375C2.68406 6.48915 2.7788 6.58393 2.89292 6.64977Z" fill="#E73232"/>
</svg>
