<svg width="24" height="24" viewBox="0 0 24 24" fill="none" xmlns="http://www.w3.org/2000/svg">
<path fill-rule="evenodd" clip-rule="evenodd" d="M8 5V4C8 2.897 8.897 2 10 2H14C15.103 2 16 2.897 16 4V5H21.25C22.77 5 24 6.23 24 7.75V10.04L12.24 13.96C12.16 13.99 12.08 14 12 14C11.92 14 11.84 13.99 11.76 13.96L0 10.04V7.75C0 6.23 1.23 5 2.75 5H8ZM14 5V4H10V5H14Z" fill="#E73232"/>
<path d="M11.23 15.36C11.7061 15.5381 12.2293 15.5452 12.71 15.38L24 11.62V19.25C24 20.77 22.77 22 21.25 22H2.75C1.23 22 0 20.77 0 19.25V11.62L11.23 15.36Z" fill="#E73232"/>
</svg>
