<svg width="30" height="30" viewBox="0 0 30 30" fill="none" xmlns="http://www.w3.org/2000/svg">
<g clip-path="url(#clip0_891_20064)">
<path d="M7.01067 6.08292L18.9702 2.81847L18.3369 1.53829C17.9225 0.70617 16.9118 0.362542 16.0797 0.776916L5.37339 6.08292H7.01067ZM22.6828 2.9128C22.5346 2.9128 22.3863 2.93301 22.2381 2.97344L19.4284 3.74154L10.8478 6.08292H24.8321L24.3066 4.15592C24.1044 3.40465 23.4239 2.9128 22.6828 2.9128ZM26.5873 7.26204H1.68782C1.15553 7.26204 0.680517 7.50797 0.370578 7.89539C0.229085 8.07394 0.12128 8.27944 0.0606401 8.50516C0.0235823 8.64665 0 8.79488 0 8.94648V27.7146C0 28.6444 0.754632 29.399 1.68445 29.399H26.5839C27.5138 29.399 28.2684 28.6444 28.2684 27.7146V23.015H18.2729C16.6929 23.015 15.4093 21.7314 15.4093 20.1514V16.4052C15.4093 15.6304 15.7192 14.9263 16.2212 14.4109C16.6659 13.9527 17.2622 13.6427 17.9293 13.5652C18.0404 13.5518 18.155 13.545 18.2695 13.545H28.2684V8.94648C28.2718 8.01667 27.5171 7.26204 26.5873 7.26204Z" fill="#E73232"/>
<path d="M29.4513 15.1554C29.2829 15.0004 29.0841 14.8825 28.8617 14.805C28.6899 14.7478 28.508 14.7141 28.316 14.7141H18.2733C17.3435 14.7141 16.5889 15.4687 16.5889 16.3986V20.1481C16.5889 21.0779 17.3435 21.8326 18.2733 21.8326H28.316C28.508 21.8326 28.6899 21.7989 28.8617 21.7416C29.0841 21.6675 29.2829 21.5462 29.4513 21.3912C29.7882 21.0847 30.0004 20.64 30.0004 20.1481V16.3986C30.0004 15.9067 29.7882 15.4619 29.4513 15.1554ZM21.7904 18.6085C21.7904 19.0734 21.4131 19.4507 20.9482 19.4507H20.389C19.9241 19.4507 19.5468 19.0734 19.5468 18.6085V18.0493C19.5468 17.7798 19.6714 17.5405 19.8702 17.3889C20.015 17.2778 20.1936 17.2071 20.389 17.2071H20.9482C21.4131 17.2071 21.7904 17.5843 21.7904 18.0493V18.6085Z" fill="#E73232"/>
</g>
<defs>
<clipPath id="clip0_891_20064">
<rect width="30" height="30" fill="white"/>
</clipPath>
</defs>
</svg>
